G04 (created by PCBNEW (2013-07-07 BZR 4022)-stable) date 24/05/2018 08:43:16*
%MOIN*%
G04 Gerber Fmt 3.4, Leading zero omitted, Abs format*
%FSLAX34Y34*%
G01*
G70*
G90*
G04 APERTURE LIST*
%ADD10C,0.005*%
%ADD11C,0.00393701*%
%ADD12C,0.00787402*%
%ADD13C,0.011811*%
G04 APERTURE END LIST*
G54D10*
G54D11*
X72000Y-65250D02*
X91500Y-65250D01*
X72000Y-54250D02*
X91500Y-54250D01*
X91500Y-54250D02*
X91500Y-65250D01*
X72000Y-54250D02*
X72000Y-65250D01*
G54D12*
X78875Y-59625D02*
X79125Y-59875D01*
X79125Y-59625D02*
X78875Y-59875D01*
X84875Y-61125D02*
X85125Y-61375D01*
X85125Y-61125D02*
X84875Y-61375D01*
X87625Y-57875D02*
X87875Y-58125D01*
X87875Y-57875D02*
X87625Y-58125D01*
X74160Y-58500D02*
G75*
G03X74160Y-58500I-160J0D01*
G74*
G01*
X74160Y-60000D02*
G75*
G03X74160Y-60000I-160J0D01*
G74*
G01*
X76910Y-58500D02*
G75*
G03X76910Y-58500I-160J0D01*
G74*
G01*
X76910Y-60000D02*
G75*
G03X76910Y-60000I-160J0D01*
G74*
G01*
X79660Y-63750D02*
G75*
G03X79660Y-63750I-160J0D01*
G74*
G01*
X80410Y-58750D02*
G75*
G03X80410Y-58750I-160J0D01*
G74*
G01*
X80410Y-61750D02*
G75*
G03X80410Y-61750I-160J0D01*
G74*
G01*
X80660Y-63750D02*
G75*
G03X80660Y-63750I-160J0D01*
G74*
G01*
X81410Y-55500D02*
G75*
G03X81410Y-55500I-160J0D01*
G74*
G01*
X81410Y-58750D02*
G75*
G03X81410Y-58750I-160J0D01*
G74*
G01*
X81410Y-61750D02*
G75*
G03X81410Y-61750I-160J0D01*
G74*
G01*
X81660Y-63750D02*
G75*
G03X81660Y-63750I-160J0D01*
G74*
G01*
X82410Y-55500D02*
G75*
G03X82410Y-55500I-160J0D01*
G74*
G01*
X82410Y-58750D02*
G75*
G03X82410Y-58750I-160J0D01*
G74*
G01*
X82410Y-61750D02*
G75*
G03X82410Y-61750I-160J0D01*
G74*
G01*
X82660Y-63750D02*
G75*
G03X82660Y-63750I-160J0D01*
G74*
G01*
X83410Y-58750D02*
G75*
G03X83410Y-58750I-160J0D01*
G74*
G01*
X83410Y-61750D02*
G75*
G03X83410Y-61750I-160J0D01*
G74*
G01*
X85160Y-58750D02*
G75*
G03X85160Y-58750I-160J0D01*
G74*
G01*
X85160Y-60250D02*
G75*
G03X85160Y-60250I-160J0D01*
G74*
G01*
X85660Y-62000D02*
G75*
G03X85660Y-62000I-160J0D01*
G74*
G01*
X87660Y-62000D02*
G75*
G03X87660Y-62000I-160J0D01*
G74*
G01*
X88160Y-58750D02*
G75*
G03X88160Y-58750I-160J0D01*
G74*
G01*
X88160Y-60250D02*
G75*
G03X88160Y-60250I-160J0D01*
G74*
G01*
X90160Y-59500D02*
G75*
G03X90160Y-59500I-160J0D01*
G74*
G01*
X90160Y-61000D02*
G75*
G03X90160Y-61000I-160J0D01*
G74*
G01*
X74750Y-55303D02*
X74750Y-55696D01*
X74553Y-55500D02*
X74946Y-55500D01*
X76750Y-55303D02*
X76750Y-55696D01*
X76553Y-55500D02*
X76946Y-55500D01*
X78750Y-55303D02*
X78750Y-55696D01*
X78553Y-55500D02*
X78946Y-55500D01*
X84750Y-55303D02*
X84750Y-55696D01*
X84553Y-55500D02*
X84946Y-55500D01*
X86750Y-55303D02*
X86750Y-55696D01*
X86553Y-55500D02*
X86946Y-55500D01*
X88750Y-55303D02*
X88750Y-55696D01*
X88553Y-55500D02*
X88946Y-55500D01*
X76391Y-61641D02*
X76391Y-61358D01*
X76108Y-61358D01*
X76108Y-61641D01*
X76391Y-61641D01*
X76391Y-63891D02*
X76391Y-63608D01*
X76108Y-63608D01*
X76108Y-63891D01*
X76391Y-63891D01*
X77891Y-61641D02*
X77891Y-61358D01*
X77608Y-61358D01*
X77608Y-61641D01*
X77891Y-61641D01*
X77891Y-63891D02*
X77891Y-63608D01*
X77608Y-63608D01*
X77608Y-63891D01*
X77891Y-63891D01*
X83891Y-63891D02*
X83891Y-63608D01*
X83608Y-63608D01*
X83608Y-63891D01*
X83891Y-63891D01*
X85391Y-63891D02*
X85391Y-63608D01*
X85108Y-63608D01*
X85108Y-63891D01*
X85391Y-63891D01*
X86891Y-63891D02*
X86891Y-63608D01*
X86608Y-63608D01*
X86608Y-63891D01*
X86891Y-63891D01*
X88641Y-63891D02*
X88641Y-63608D01*
X88358Y-63608D01*
X88358Y-63891D01*
X88641Y-63891D01*
X90141Y-63891D02*
X90141Y-63608D01*
X89858Y-63608D01*
X89858Y-63891D01*
X90141Y-63891D01*
X73750Y-61975D02*
X73975Y-61750D01*
X73750Y-61525D01*
X73525Y-61750D01*
X73750Y-61975D01*
X73750Y-62975D02*
X73975Y-62750D01*
X73750Y-62525D01*
X73525Y-62750D01*
X73750Y-62975D01*
X73750Y-63975D02*
X73975Y-63750D01*
X73750Y-63525D01*
X73525Y-63750D01*
X73750Y-63975D01*
G54D13*
X73048Y-67046D02*
X73048Y-65865D01*
X73330Y-65865D01*
X73498Y-65922D01*
X73611Y-66034D01*
X73667Y-66147D01*
X73723Y-66372D01*
X73723Y-66540D01*
X73667Y-66765D01*
X73611Y-66878D01*
X73498Y-66990D01*
X73330Y-67046D01*
X73048Y-67046D01*
X74230Y-67046D02*
X74230Y-66259D01*
X74230Y-66484D02*
X74286Y-66372D01*
X74342Y-66315D01*
X74455Y-66259D01*
X74567Y-66259D01*
X74961Y-67046D02*
X74961Y-66259D01*
X74961Y-65865D02*
X74904Y-65922D01*
X74961Y-65978D01*
X75017Y-65922D01*
X74961Y-65865D01*
X74961Y-65978D01*
X75692Y-67046D02*
X75579Y-66990D01*
X75523Y-66878D01*
X75523Y-65865D01*
X76311Y-67046D02*
X76198Y-66990D01*
X76142Y-66878D01*
X76142Y-65865D01*
X77660Y-67046D02*
X77660Y-65865D01*
X78054Y-66709D01*
X78448Y-65865D01*
X78448Y-67046D01*
X79516Y-67046D02*
X79516Y-66428D01*
X79460Y-66315D01*
X79348Y-66259D01*
X79123Y-66259D01*
X79010Y-66315D01*
X79516Y-66990D02*
X79404Y-67046D01*
X79123Y-67046D01*
X79010Y-66990D01*
X78954Y-66878D01*
X78954Y-66765D01*
X79010Y-66653D01*
X79123Y-66597D01*
X79404Y-66597D01*
X79516Y-66540D01*
X80079Y-66259D02*
X80079Y-67440D01*
X80079Y-66315D02*
X80191Y-66259D01*
X80416Y-66259D01*
X80529Y-66315D01*
X80585Y-66372D01*
X80641Y-66484D01*
X80641Y-66821D01*
X80585Y-66934D01*
X80529Y-66990D01*
X80416Y-67046D01*
X80191Y-67046D01*
X80079Y-66990D01*
X81147Y-66934D02*
X81204Y-66990D01*
X81147Y-67046D01*
X81091Y-66990D01*
X81147Y-66934D01*
X81147Y-67046D01*
X81147Y-66315D02*
X81204Y-66372D01*
X81147Y-66428D01*
X81091Y-66372D01*
X81147Y-66315D01*
X81147Y-66428D01*
X71730Y-68924D02*
X71980Y-69174D01*
X71980Y-68924D02*
X71730Y-69174D01*
X73273Y-68346D02*
X73386Y-68346D01*
X73498Y-68402D01*
X73555Y-68458D01*
X73611Y-68571D01*
X73667Y-68796D01*
X73667Y-69077D01*
X73611Y-69302D01*
X73555Y-69414D01*
X73498Y-69471D01*
X73386Y-69527D01*
X73273Y-69527D01*
X73161Y-69471D01*
X73105Y-69414D01*
X73048Y-69302D01*
X72992Y-69077D01*
X72992Y-68796D01*
X73048Y-68571D01*
X73105Y-68458D01*
X73161Y-68402D01*
X73273Y-68346D01*
X74173Y-69414D02*
X74230Y-69471D01*
X74173Y-69527D01*
X74117Y-69471D01*
X74173Y-69414D01*
X74173Y-69527D01*
X75242Y-68346D02*
X75017Y-68346D01*
X74904Y-68402D01*
X74848Y-68458D01*
X74736Y-68627D01*
X74679Y-68852D01*
X74679Y-69302D01*
X74736Y-69414D01*
X74792Y-69471D01*
X74904Y-69527D01*
X75129Y-69527D01*
X75242Y-69471D01*
X75298Y-69414D01*
X75354Y-69302D01*
X75354Y-69021D01*
X75298Y-68908D01*
X75242Y-68852D01*
X75129Y-68796D01*
X74904Y-68796D01*
X74792Y-68852D01*
X74736Y-68908D01*
X74679Y-69021D01*
X76367Y-68739D02*
X76367Y-69527D01*
X76086Y-68289D02*
X75804Y-69133D01*
X76535Y-69133D01*
X76985Y-69527D02*
X76985Y-68739D01*
X76985Y-68852D02*
X77042Y-68796D01*
X77154Y-68739D01*
X77323Y-68739D01*
X77435Y-68796D01*
X77492Y-68908D01*
X77492Y-69527D01*
X77492Y-68908D02*
X77548Y-68796D01*
X77660Y-68739D01*
X77829Y-68739D01*
X77942Y-68796D01*
X77998Y-68908D01*
X77998Y-69527D01*
X78560Y-69527D02*
X78560Y-68739D01*
X78560Y-68852D02*
X78616Y-68796D01*
X78729Y-68739D01*
X78898Y-68739D01*
X79010Y-68796D01*
X79066Y-68908D01*
X79066Y-69527D01*
X79066Y-68908D02*
X79123Y-68796D01*
X79235Y-68739D01*
X79404Y-68739D01*
X79516Y-68796D01*
X79573Y-68908D01*
X79573Y-69527D01*
X81879Y-68289D02*
X80866Y-69808D01*
X83397Y-68346D02*
X83510Y-68346D01*
X83622Y-68402D01*
X83678Y-68458D01*
X83735Y-68571D01*
X83791Y-68796D01*
X83791Y-69077D01*
X83735Y-69302D01*
X83678Y-69414D01*
X83622Y-69471D01*
X83510Y-69527D01*
X83397Y-69527D01*
X83285Y-69471D01*
X83228Y-69414D01*
X83172Y-69302D01*
X83116Y-69077D01*
X83116Y-68796D01*
X83172Y-68571D01*
X83228Y-68458D01*
X83285Y-68402D01*
X83397Y-68346D01*
X84297Y-69414D02*
X84353Y-69471D01*
X84297Y-69527D01*
X84241Y-69471D01*
X84297Y-69414D01*
X84297Y-69527D01*
X85084Y-68346D02*
X85197Y-68346D01*
X85309Y-68402D01*
X85366Y-68458D01*
X85422Y-68571D01*
X85478Y-68796D01*
X85478Y-69077D01*
X85422Y-69302D01*
X85366Y-69414D01*
X85309Y-69471D01*
X85197Y-69527D01*
X85084Y-69527D01*
X84972Y-69471D01*
X84916Y-69414D01*
X84859Y-69302D01*
X84803Y-69077D01*
X84803Y-68796D01*
X84859Y-68571D01*
X84916Y-68458D01*
X84972Y-68402D01*
X85084Y-68346D01*
X85928Y-68458D02*
X85984Y-68402D01*
X86097Y-68346D01*
X86378Y-68346D01*
X86491Y-68402D01*
X86547Y-68458D01*
X86603Y-68571D01*
X86603Y-68683D01*
X86547Y-68852D01*
X85872Y-69527D01*
X86603Y-69527D01*
X87672Y-68346D02*
X87109Y-68346D01*
X87053Y-68908D01*
X87109Y-68852D01*
X87222Y-68796D01*
X87503Y-68796D01*
X87615Y-68852D01*
X87672Y-68908D01*
X87728Y-69021D01*
X87728Y-69302D01*
X87672Y-69414D01*
X87615Y-69471D01*
X87503Y-69527D01*
X87222Y-69527D01*
X87109Y-69471D01*
X87053Y-69414D01*
X88178Y-68346D02*
X88178Y-68571D01*
X88628Y-68346D02*
X88628Y-68571D01*
X90371Y-69977D02*
X90315Y-69920D01*
X90203Y-69752D01*
X90146Y-69639D01*
X90090Y-69471D01*
X90034Y-69189D01*
X90034Y-68964D01*
X90090Y-68683D01*
X90146Y-68514D01*
X90203Y-68402D01*
X90315Y-68233D01*
X90371Y-68177D01*
X90709Y-68346D02*
X91440Y-68346D01*
X91046Y-68796D01*
X91215Y-68796D01*
X91327Y-68852D01*
X91384Y-68908D01*
X91440Y-69021D01*
X91440Y-69302D01*
X91384Y-69414D01*
X91327Y-69471D01*
X91215Y-69527D01*
X90877Y-69527D01*
X90765Y-69471D01*
X90709Y-69414D01*
X92846Y-69527D02*
X92846Y-68346D01*
X93352Y-69527D02*
X93352Y-68908D01*
X93296Y-68796D01*
X93183Y-68739D01*
X93015Y-68739D01*
X92902Y-68796D01*
X92846Y-68852D01*
X94083Y-69527D02*
X93971Y-69471D01*
X93915Y-69414D01*
X93858Y-69302D01*
X93858Y-68964D01*
X93915Y-68852D01*
X93971Y-68796D01*
X94083Y-68739D01*
X94252Y-68739D01*
X94365Y-68796D01*
X94421Y-68852D01*
X94477Y-68964D01*
X94477Y-69302D01*
X94421Y-69414D01*
X94365Y-69471D01*
X94252Y-69527D01*
X94083Y-69527D01*
X95152Y-69527D02*
X95039Y-69471D01*
X94983Y-69358D01*
X94983Y-68346D01*
X96052Y-69471D02*
X95939Y-69527D01*
X95714Y-69527D01*
X95602Y-69471D01*
X95546Y-69358D01*
X95546Y-68908D01*
X95602Y-68796D01*
X95714Y-68739D01*
X95939Y-68739D01*
X96052Y-68796D01*
X96108Y-68908D01*
X96108Y-69021D01*
X95546Y-69133D01*
X96558Y-69471D02*
X96670Y-69527D01*
X96895Y-69527D01*
X97008Y-69471D01*
X97064Y-69358D01*
X97064Y-69302D01*
X97008Y-69189D01*
X96895Y-69133D01*
X96727Y-69133D01*
X96614Y-69077D01*
X96558Y-68964D01*
X96558Y-68908D01*
X96614Y-68796D01*
X96727Y-68739D01*
X96895Y-68739D01*
X97008Y-68796D01*
X97458Y-69977D02*
X97514Y-69920D01*
X97627Y-69752D01*
X97683Y-69639D01*
X97739Y-69471D01*
X97795Y-69189D01*
X97795Y-68964D01*
X97739Y-68683D01*
X97683Y-68514D01*
X97627Y-68402D01*
X97514Y-68233D01*
X97458Y-68177D01*
G54D12*
X71980Y-70608D02*
G75*
G03X71980Y-70608I-160J0D01*
G74*
G01*
G54D13*
X73273Y-69905D02*
X73386Y-69905D01*
X73498Y-69961D01*
X73555Y-70017D01*
X73611Y-70130D01*
X73667Y-70355D01*
X73667Y-70636D01*
X73611Y-70861D01*
X73555Y-70973D01*
X73498Y-71030D01*
X73386Y-71086D01*
X73273Y-71086D01*
X73161Y-71030D01*
X73105Y-70973D01*
X73048Y-70861D01*
X72992Y-70636D01*
X72992Y-70355D01*
X73048Y-70130D01*
X73105Y-70017D01*
X73161Y-69961D01*
X73273Y-69905D01*
X74173Y-70973D02*
X74230Y-71030D01*
X74173Y-71086D01*
X74117Y-71030D01*
X74173Y-70973D01*
X74173Y-71086D01*
X74904Y-70411D02*
X74792Y-70355D01*
X74736Y-70298D01*
X74679Y-70186D01*
X74679Y-70130D01*
X74736Y-70017D01*
X74792Y-69961D01*
X74904Y-69905D01*
X75129Y-69905D01*
X75242Y-69961D01*
X75298Y-70017D01*
X75354Y-70130D01*
X75354Y-70186D01*
X75298Y-70298D01*
X75242Y-70355D01*
X75129Y-70411D01*
X74904Y-70411D01*
X74792Y-70467D01*
X74736Y-70523D01*
X74679Y-70636D01*
X74679Y-70861D01*
X74736Y-70973D01*
X74792Y-71030D01*
X74904Y-71086D01*
X75129Y-71086D01*
X75242Y-71030D01*
X75298Y-70973D01*
X75354Y-70861D01*
X75354Y-70636D01*
X75298Y-70523D01*
X75242Y-70467D01*
X75129Y-70411D01*
X76479Y-71086D02*
X75804Y-71086D01*
X76142Y-71086D02*
X76142Y-69905D01*
X76029Y-70073D01*
X75917Y-70186D01*
X75804Y-70242D01*
X76985Y-71086D02*
X76985Y-70298D01*
X76985Y-70411D02*
X77042Y-70355D01*
X77154Y-70298D01*
X77323Y-70298D01*
X77435Y-70355D01*
X77492Y-70467D01*
X77492Y-71086D01*
X77492Y-70467D02*
X77548Y-70355D01*
X77660Y-70298D01*
X77829Y-70298D01*
X77942Y-70355D01*
X77998Y-70467D01*
X77998Y-71086D01*
X78560Y-71086D02*
X78560Y-70298D01*
X78560Y-70411D02*
X78616Y-70355D01*
X78729Y-70298D01*
X78898Y-70298D01*
X79010Y-70355D01*
X79066Y-70467D01*
X79066Y-71086D01*
X79066Y-70467D02*
X79123Y-70355D01*
X79235Y-70298D01*
X79404Y-70298D01*
X79516Y-70355D01*
X79573Y-70467D01*
X79573Y-71086D01*
X81879Y-69848D02*
X80866Y-71367D01*
X83397Y-69905D02*
X83510Y-69905D01*
X83622Y-69961D01*
X83678Y-70017D01*
X83735Y-70130D01*
X83791Y-70355D01*
X83791Y-70636D01*
X83735Y-70861D01*
X83678Y-70973D01*
X83622Y-71030D01*
X83510Y-71086D01*
X83397Y-71086D01*
X83285Y-71030D01*
X83228Y-70973D01*
X83172Y-70861D01*
X83116Y-70636D01*
X83116Y-70355D01*
X83172Y-70130D01*
X83228Y-70017D01*
X83285Y-69961D01*
X83397Y-69905D01*
X84297Y-70973D02*
X84353Y-71030D01*
X84297Y-71086D01*
X84241Y-71030D01*
X84297Y-70973D01*
X84297Y-71086D01*
X85084Y-69905D02*
X85197Y-69905D01*
X85309Y-69961D01*
X85366Y-70017D01*
X85422Y-70130D01*
X85478Y-70355D01*
X85478Y-70636D01*
X85422Y-70861D01*
X85366Y-70973D01*
X85309Y-71030D01*
X85197Y-71086D01*
X85084Y-71086D01*
X84972Y-71030D01*
X84916Y-70973D01*
X84859Y-70861D01*
X84803Y-70636D01*
X84803Y-70355D01*
X84859Y-70130D01*
X84916Y-70017D01*
X84972Y-69961D01*
X85084Y-69905D01*
X85872Y-69905D02*
X86603Y-69905D01*
X86209Y-70355D01*
X86378Y-70355D01*
X86491Y-70411D01*
X86547Y-70467D01*
X86603Y-70580D01*
X86603Y-70861D01*
X86547Y-70973D01*
X86491Y-71030D01*
X86378Y-71086D01*
X86041Y-71086D01*
X85928Y-71030D01*
X85872Y-70973D01*
X87053Y-70017D02*
X87109Y-69961D01*
X87222Y-69905D01*
X87503Y-69905D01*
X87615Y-69961D01*
X87672Y-70017D01*
X87728Y-70130D01*
X87728Y-70242D01*
X87672Y-70411D01*
X86997Y-71086D01*
X87728Y-71086D01*
X88178Y-69905D02*
X88178Y-70130D01*
X88628Y-69905D02*
X88628Y-70130D01*
X90371Y-71536D02*
X90315Y-71480D01*
X90203Y-71311D01*
X90146Y-71198D01*
X90090Y-71030D01*
X90034Y-70748D01*
X90034Y-70523D01*
X90090Y-70242D01*
X90146Y-70073D01*
X90203Y-69961D01*
X90315Y-69792D01*
X90371Y-69736D01*
X90765Y-70017D02*
X90821Y-69961D01*
X90934Y-69905D01*
X91215Y-69905D01*
X91327Y-69961D01*
X91384Y-70017D01*
X91440Y-70130D01*
X91440Y-70242D01*
X91384Y-70411D01*
X90709Y-71086D01*
X91440Y-71086D01*
X92452Y-69905D02*
X92227Y-69905D01*
X92115Y-69961D01*
X92059Y-70017D01*
X91946Y-70186D01*
X91890Y-70411D01*
X91890Y-70861D01*
X91946Y-70973D01*
X92002Y-71030D01*
X92115Y-71086D01*
X92340Y-71086D01*
X92452Y-71030D01*
X92508Y-70973D01*
X92565Y-70861D01*
X92565Y-70580D01*
X92508Y-70467D01*
X92452Y-70411D01*
X92340Y-70355D01*
X92115Y-70355D01*
X92002Y-70411D01*
X91946Y-70467D01*
X91890Y-70580D01*
X93971Y-71086D02*
X93971Y-69905D01*
X94477Y-71086D02*
X94477Y-70467D01*
X94421Y-70355D01*
X94308Y-70298D01*
X94140Y-70298D01*
X94027Y-70355D01*
X93971Y-70411D01*
X95208Y-71086D02*
X95096Y-71030D01*
X95039Y-70973D01*
X94983Y-70861D01*
X94983Y-70523D01*
X95039Y-70411D01*
X95096Y-70355D01*
X95208Y-70298D01*
X95377Y-70298D01*
X95489Y-70355D01*
X95546Y-70411D01*
X95602Y-70523D01*
X95602Y-70861D01*
X95546Y-70973D01*
X95489Y-71030D01*
X95377Y-71086D01*
X95208Y-71086D01*
X96277Y-71086D02*
X96164Y-71030D01*
X96108Y-70917D01*
X96108Y-69905D01*
X97177Y-71030D02*
X97064Y-71086D01*
X96839Y-71086D01*
X96727Y-71030D01*
X96670Y-70917D01*
X96670Y-70467D01*
X96727Y-70355D01*
X96839Y-70298D01*
X97064Y-70298D01*
X97177Y-70355D01*
X97233Y-70467D01*
X97233Y-70580D01*
X96670Y-70692D01*
X97683Y-71030D02*
X97795Y-71086D01*
X98020Y-71086D01*
X98133Y-71030D01*
X98189Y-70917D01*
X98189Y-70861D01*
X98133Y-70748D01*
X98020Y-70692D01*
X97852Y-70692D01*
X97739Y-70636D01*
X97683Y-70523D01*
X97683Y-70467D01*
X97739Y-70355D01*
X97852Y-70298D01*
X98020Y-70298D01*
X98133Y-70355D01*
X98583Y-71536D02*
X98639Y-71480D01*
X98751Y-71311D01*
X98808Y-71198D01*
X98864Y-71030D01*
X98920Y-70748D01*
X98920Y-70523D01*
X98864Y-70242D01*
X98808Y-70073D01*
X98751Y-69961D01*
X98639Y-69792D01*
X98583Y-69736D01*
X71783Y-71970D02*
X71783Y-72364D01*
X71586Y-72167D02*
X71980Y-72167D01*
X73667Y-72645D02*
X72992Y-72645D01*
X73330Y-72645D02*
X73330Y-71464D01*
X73217Y-71633D01*
X73105Y-71745D01*
X72992Y-71801D01*
X74173Y-72532D02*
X74230Y-72589D01*
X74173Y-72645D01*
X74117Y-72589D01*
X74173Y-72532D01*
X74173Y-72645D01*
X74961Y-71464D02*
X75073Y-71464D01*
X75186Y-71520D01*
X75242Y-71576D01*
X75298Y-71689D01*
X75354Y-71914D01*
X75354Y-72195D01*
X75298Y-72420D01*
X75242Y-72532D01*
X75186Y-72589D01*
X75073Y-72645D01*
X74961Y-72645D01*
X74848Y-72589D01*
X74792Y-72532D01*
X74736Y-72420D01*
X74679Y-72195D01*
X74679Y-71914D01*
X74736Y-71689D01*
X74792Y-71576D01*
X74848Y-71520D01*
X74961Y-71464D01*
X76086Y-71464D02*
X76198Y-71464D01*
X76311Y-71520D01*
X76367Y-71576D01*
X76423Y-71689D01*
X76479Y-71914D01*
X76479Y-72195D01*
X76423Y-72420D01*
X76367Y-72532D01*
X76311Y-72589D01*
X76198Y-72645D01*
X76086Y-72645D01*
X75973Y-72589D01*
X75917Y-72532D01*
X75861Y-72420D01*
X75804Y-72195D01*
X75804Y-71914D01*
X75861Y-71689D01*
X75917Y-71576D01*
X75973Y-71520D01*
X76086Y-71464D01*
X76985Y-72645D02*
X76985Y-71857D01*
X76985Y-71970D02*
X77042Y-71914D01*
X77154Y-71857D01*
X77323Y-71857D01*
X77435Y-71914D01*
X77492Y-72026D01*
X77492Y-72645D01*
X77492Y-72026D02*
X77548Y-71914D01*
X77660Y-71857D01*
X77829Y-71857D01*
X77942Y-71914D01*
X77998Y-72026D01*
X77998Y-72645D01*
X78560Y-72645D02*
X78560Y-71857D01*
X78560Y-71970D02*
X78616Y-71914D01*
X78729Y-71857D01*
X78898Y-71857D01*
X79010Y-71914D01*
X79066Y-72026D01*
X79066Y-72645D01*
X79066Y-72026D02*
X79123Y-71914D01*
X79235Y-71857D01*
X79404Y-71857D01*
X79516Y-71914D01*
X79573Y-72026D01*
X79573Y-72645D01*
X81879Y-71408D02*
X80866Y-72926D01*
X83397Y-71464D02*
X83510Y-71464D01*
X83622Y-71520D01*
X83678Y-71576D01*
X83735Y-71689D01*
X83791Y-71914D01*
X83791Y-72195D01*
X83735Y-72420D01*
X83678Y-72532D01*
X83622Y-72589D01*
X83510Y-72645D01*
X83397Y-72645D01*
X83285Y-72589D01*
X83228Y-72532D01*
X83172Y-72420D01*
X83116Y-72195D01*
X83116Y-71914D01*
X83172Y-71689D01*
X83228Y-71576D01*
X83285Y-71520D01*
X83397Y-71464D01*
X84297Y-72532D02*
X84353Y-72589D01*
X84297Y-72645D01*
X84241Y-72589D01*
X84297Y-72532D01*
X84297Y-72645D01*
X85084Y-71464D02*
X85197Y-71464D01*
X85309Y-71520D01*
X85366Y-71576D01*
X85422Y-71689D01*
X85478Y-71914D01*
X85478Y-72195D01*
X85422Y-72420D01*
X85366Y-72532D01*
X85309Y-72589D01*
X85197Y-72645D01*
X85084Y-72645D01*
X84972Y-72589D01*
X84916Y-72532D01*
X84859Y-72420D01*
X84803Y-72195D01*
X84803Y-71914D01*
X84859Y-71689D01*
X84916Y-71576D01*
X84972Y-71520D01*
X85084Y-71464D01*
X85872Y-71464D02*
X86603Y-71464D01*
X86209Y-71914D01*
X86378Y-71914D01*
X86491Y-71970D01*
X86547Y-72026D01*
X86603Y-72139D01*
X86603Y-72420D01*
X86547Y-72532D01*
X86491Y-72589D01*
X86378Y-72645D01*
X86041Y-72645D01*
X85928Y-72589D01*
X85872Y-72532D01*
X87165Y-72645D02*
X87390Y-72645D01*
X87503Y-72589D01*
X87559Y-72532D01*
X87672Y-72364D01*
X87728Y-72139D01*
X87728Y-71689D01*
X87672Y-71576D01*
X87615Y-71520D01*
X87503Y-71464D01*
X87278Y-71464D01*
X87165Y-71520D01*
X87109Y-71576D01*
X87053Y-71689D01*
X87053Y-71970D01*
X87109Y-72082D01*
X87165Y-72139D01*
X87278Y-72195D01*
X87503Y-72195D01*
X87615Y-72139D01*
X87672Y-72082D01*
X87728Y-71970D01*
X88178Y-71464D02*
X88178Y-71689D01*
X88628Y-71464D02*
X88628Y-71689D01*
X90371Y-73095D02*
X90315Y-73039D01*
X90203Y-72870D01*
X90146Y-72757D01*
X90090Y-72589D01*
X90034Y-72307D01*
X90034Y-72082D01*
X90090Y-71801D01*
X90146Y-71633D01*
X90203Y-71520D01*
X90315Y-71351D01*
X90371Y-71295D01*
X91327Y-71464D02*
X91102Y-71464D01*
X90990Y-71520D01*
X90934Y-71576D01*
X90821Y-71745D01*
X90765Y-71970D01*
X90765Y-72420D01*
X90821Y-72532D01*
X90877Y-72589D01*
X90990Y-72645D01*
X91215Y-72645D01*
X91327Y-72589D01*
X91384Y-72532D01*
X91440Y-72420D01*
X91440Y-72139D01*
X91384Y-72026D01*
X91327Y-71970D01*
X91215Y-71914D01*
X90990Y-71914D01*
X90877Y-71970D01*
X90821Y-72026D01*
X90765Y-72139D01*
X92846Y-72645D02*
X92846Y-71464D01*
X93352Y-72645D02*
X93352Y-72026D01*
X93296Y-71914D01*
X93183Y-71857D01*
X93015Y-71857D01*
X92902Y-71914D01*
X92846Y-71970D01*
X94083Y-72645D02*
X93971Y-72589D01*
X93915Y-72532D01*
X93858Y-72420D01*
X93858Y-72082D01*
X93915Y-71970D01*
X93971Y-71914D01*
X94083Y-71857D01*
X94252Y-71857D01*
X94365Y-71914D01*
X94421Y-71970D01*
X94477Y-72082D01*
X94477Y-72420D01*
X94421Y-72532D01*
X94365Y-72589D01*
X94252Y-72645D01*
X94083Y-72645D01*
X95152Y-72645D02*
X95039Y-72589D01*
X94983Y-72476D01*
X94983Y-71464D01*
X96052Y-72589D02*
X95939Y-72645D01*
X95714Y-72645D01*
X95602Y-72589D01*
X95546Y-72476D01*
X95546Y-72026D01*
X95602Y-71914D01*
X95714Y-71857D01*
X95939Y-71857D01*
X96052Y-71914D01*
X96108Y-72026D01*
X96108Y-72139D01*
X95546Y-72251D01*
X96558Y-72589D02*
X96670Y-72645D01*
X96895Y-72645D01*
X97008Y-72589D01*
X97064Y-72476D01*
X97064Y-72420D01*
X97008Y-72307D01*
X96895Y-72251D01*
X96727Y-72251D01*
X96614Y-72195D01*
X96558Y-72082D01*
X96558Y-72026D01*
X96614Y-71914D01*
X96727Y-71857D01*
X96895Y-71857D01*
X97008Y-71914D01*
X97458Y-73095D02*
X97514Y-73039D01*
X97627Y-72870D01*
X97683Y-72757D01*
X97739Y-72589D01*
X97795Y-72307D01*
X97795Y-72082D01*
X97739Y-71801D01*
X97683Y-71633D01*
X97627Y-71520D01*
X97514Y-71351D01*
X97458Y-71295D01*
G54D12*
X71921Y-73867D02*
X71921Y-73584D01*
X71638Y-73584D01*
X71638Y-73867D01*
X71921Y-73867D01*
G54D13*
X73667Y-74204D02*
X72992Y-74204D01*
X73330Y-74204D02*
X73330Y-73023D01*
X73217Y-73192D01*
X73105Y-73304D01*
X72992Y-73360D01*
X74173Y-74091D02*
X74230Y-74148D01*
X74173Y-74204D01*
X74117Y-74148D01*
X74173Y-74091D01*
X74173Y-74204D01*
X74961Y-73023D02*
X75073Y-73023D01*
X75186Y-73079D01*
X75242Y-73135D01*
X75298Y-73248D01*
X75354Y-73473D01*
X75354Y-73754D01*
X75298Y-73979D01*
X75242Y-74091D01*
X75186Y-74148D01*
X75073Y-74204D01*
X74961Y-74204D01*
X74848Y-74148D01*
X74792Y-74091D01*
X74736Y-73979D01*
X74679Y-73754D01*
X74679Y-73473D01*
X74736Y-73248D01*
X74792Y-73135D01*
X74848Y-73079D01*
X74961Y-73023D01*
X75804Y-73135D02*
X75861Y-73079D01*
X75973Y-73023D01*
X76254Y-73023D01*
X76367Y-73079D01*
X76423Y-73135D01*
X76479Y-73248D01*
X76479Y-73360D01*
X76423Y-73529D01*
X75748Y-74204D01*
X76479Y-74204D01*
X76985Y-74204D02*
X76985Y-73417D01*
X76985Y-73529D02*
X77042Y-73473D01*
X77154Y-73417D01*
X77323Y-73417D01*
X77435Y-73473D01*
X77492Y-73585D01*
X77492Y-74204D01*
X77492Y-73585D02*
X77548Y-73473D01*
X77660Y-73417D01*
X77829Y-73417D01*
X77942Y-73473D01*
X77998Y-73585D01*
X77998Y-74204D01*
X78560Y-74204D02*
X78560Y-73417D01*
X78560Y-73529D02*
X78616Y-73473D01*
X78729Y-73417D01*
X78898Y-73417D01*
X79010Y-73473D01*
X79066Y-73585D01*
X79066Y-74204D01*
X79066Y-73585D02*
X79123Y-73473D01*
X79235Y-73417D01*
X79404Y-73417D01*
X79516Y-73473D01*
X79573Y-73585D01*
X79573Y-74204D01*
X81879Y-72967D02*
X80866Y-74485D01*
X83397Y-73023D02*
X83510Y-73023D01*
X83622Y-73079D01*
X83678Y-73135D01*
X83735Y-73248D01*
X83791Y-73473D01*
X83791Y-73754D01*
X83735Y-73979D01*
X83678Y-74091D01*
X83622Y-74148D01*
X83510Y-74204D01*
X83397Y-74204D01*
X83285Y-74148D01*
X83228Y-74091D01*
X83172Y-73979D01*
X83116Y-73754D01*
X83116Y-73473D01*
X83172Y-73248D01*
X83228Y-73135D01*
X83285Y-73079D01*
X83397Y-73023D01*
X84297Y-74091D02*
X84353Y-74148D01*
X84297Y-74204D01*
X84241Y-74148D01*
X84297Y-74091D01*
X84297Y-74204D01*
X85084Y-73023D02*
X85197Y-73023D01*
X85309Y-73079D01*
X85366Y-73135D01*
X85422Y-73248D01*
X85478Y-73473D01*
X85478Y-73754D01*
X85422Y-73979D01*
X85366Y-74091D01*
X85309Y-74148D01*
X85197Y-74204D01*
X85084Y-74204D01*
X84972Y-74148D01*
X84916Y-74091D01*
X84859Y-73979D01*
X84803Y-73754D01*
X84803Y-73473D01*
X84859Y-73248D01*
X84916Y-73135D01*
X84972Y-73079D01*
X85084Y-73023D01*
X86491Y-73417D02*
X86491Y-74204D01*
X86209Y-72967D02*
X85928Y-73810D01*
X86659Y-73810D01*
X87334Y-73023D02*
X87447Y-73023D01*
X87559Y-73079D01*
X87615Y-73135D01*
X87672Y-73248D01*
X87728Y-73473D01*
X87728Y-73754D01*
X87672Y-73979D01*
X87615Y-74091D01*
X87559Y-74148D01*
X87447Y-74204D01*
X87334Y-74204D01*
X87222Y-74148D01*
X87165Y-74091D01*
X87109Y-73979D01*
X87053Y-73754D01*
X87053Y-73473D01*
X87109Y-73248D01*
X87165Y-73135D01*
X87222Y-73079D01*
X87334Y-73023D01*
X88178Y-73023D02*
X88178Y-73248D01*
X88628Y-73023D02*
X88628Y-73248D01*
X90371Y-74654D02*
X90315Y-74598D01*
X90203Y-74429D01*
X90146Y-74316D01*
X90090Y-74148D01*
X90034Y-73866D01*
X90034Y-73642D01*
X90090Y-73360D01*
X90146Y-73192D01*
X90203Y-73079D01*
X90315Y-72910D01*
X90371Y-72854D01*
X90877Y-74204D02*
X91102Y-74204D01*
X91215Y-74148D01*
X91271Y-74091D01*
X91384Y-73923D01*
X91440Y-73698D01*
X91440Y-73248D01*
X91384Y-73135D01*
X91327Y-73079D01*
X91215Y-73023D01*
X90990Y-73023D01*
X90877Y-73079D01*
X90821Y-73135D01*
X90765Y-73248D01*
X90765Y-73529D01*
X90821Y-73642D01*
X90877Y-73698D01*
X90990Y-73754D01*
X91215Y-73754D01*
X91327Y-73698D01*
X91384Y-73642D01*
X91440Y-73529D01*
X92846Y-74204D02*
X92846Y-73023D01*
X93352Y-74204D02*
X93352Y-73585D01*
X93296Y-73473D01*
X93183Y-73417D01*
X93015Y-73417D01*
X92902Y-73473D01*
X92846Y-73529D01*
X94083Y-74204D02*
X93971Y-74148D01*
X93915Y-74091D01*
X93858Y-73979D01*
X93858Y-73642D01*
X93915Y-73529D01*
X93971Y-73473D01*
X94083Y-73417D01*
X94252Y-73417D01*
X94365Y-73473D01*
X94421Y-73529D01*
X94477Y-73642D01*
X94477Y-73979D01*
X94421Y-74091D01*
X94365Y-74148D01*
X94252Y-74204D01*
X94083Y-74204D01*
X95152Y-74204D02*
X95039Y-74148D01*
X94983Y-74035D01*
X94983Y-73023D01*
X96052Y-74148D02*
X95939Y-74204D01*
X95714Y-74204D01*
X95602Y-74148D01*
X95546Y-74035D01*
X95546Y-73585D01*
X95602Y-73473D01*
X95714Y-73417D01*
X95939Y-73417D01*
X96052Y-73473D01*
X96108Y-73585D01*
X96108Y-73698D01*
X95546Y-73810D01*
X96558Y-74148D02*
X96670Y-74204D01*
X96895Y-74204D01*
X97008Y-74148D01*
X97064Y-74035D01*
X97064Y-73979D01*
X97008Y-73866D01*
X96895Y-73810D01*
X96727Y-73810D01*
X96614Y-73754D01*
X96558Y-73642D01*
X96558Y-73585D01*
X96614Y-73473D01*
X96727Y-73417D01*
X96895Y-73417D01*
X97008Y-73473D01*
X97458Y-74654D02*
X97514Y-74598D01*
X97627Y-74429D01*
X97683Y-74316D01*
X97739Y-74148D01*
X97795Y-73866D01*
X97795Y-73642D01*
X97739Y-73360D01*
X97683Y-73192D01*
X97627Y-73079D01*
X97514Y-72910D01*
X97458Y-72854D01*
G54D12*
X71755Y-75510D02*
X71980Y-75285D01*
X71755Y-75060D01*
X71530Y-75285D01*
X71755Y-75510D01*
G54D13*
X73667Y-75763D02*
X72992Y-75763D01*
X73330Y-75763D02*
X73330Y-74582D01*
X73217Y-74751D01*
X73105Y-74863D01*
X72992Y-74919D01*
X74173Y-75651D02*
X74230Y-75707D01*
X74173Y-75763D01*
X74117Y-75707D01*
X74173Y-75651D01*
X74173Y-75763D01*
X75354Y-75763D02*
X74679Y-75763D01*
X75017Y-75763D02*
X75017Y-74582D01*
X74904Y-74751D01*
X74792Y-74863D01*
X74679Y-74919D01*
X76367Y-74976D02*
X76367Y-75763D01*
X76086Y-74526D02*
X75804Y-75369D01*
X76535Y-75369D01*
X76985Y-75763D02*
X76985Y-74976D01*
X76985Y-75088D02*
X77042Y-75032D01*
X77154Y-74976D01*
X77323Y-74976D01*
X77435Y-75032D01*
X77492Y-75144D01*
X77492Y-75763D01*
X77492Y-75144D02*
X77548Y-75032D01*
X77660Y-74976D01*
X77829Y-74976D01*
X77942Y-75032D01*
X77998Y-75144D01*
X77998Y-75763D01*
X78560Y-75763D02*
X78560Y-74976D01*
X78560Y-75088D02*
X78616Y-75032D01*
X78729Y-74976D01*
X78898Y-74976D01*
X79010Y-75032D01*
X79066Y-75144D01*
X79066Y-75763D01*
X79066Y-75144D02*
X79123Y-75032D01*
X79235Y-74976D01*
X79404Y-74976D01*
X79516Y-75032D01*
X79573Y-75144D01*
X79573Y-75763D01*
X81879Y-74526D02*
X80866Y-76044D01*
X83397Y-74582D02*
X83510Y-74582D01*
X83622Y-74638D01*
X83678Y-74694D01*
X83735Y-74807D01*
X83791Y-75032D01*
X83791Y-75313D01*
X83735Y-75538D01*
X83678Y-75651D01*
X83622Y-75707D01*
X83510Y-75763D01*
X83397Y-75763D01*
X83285Y-75707D01*
X83228Y-75651D01*
X83172Y-75538D01*
X83116Y-75313D01*
X83116Y-75032D01*
X83172Y-74807D01*
X83228Y-74694D01*
X83285Y-74638D01*
X83397Y-74582D01*
X84297Y-75651D02*
X84353Y-75707D01*
X84297Y-75763D01*
X84241Y-75707D01*
X84297Y-75651D01*
X84297Y-75763D01*
X85084Y-74582D02*
X85197Y-74582D01*
X85309Y-74638D01*
X85366Y-74694D01*
X85422Y-74807D01*
X85478Y-75032D01*
X85478Y-75313D01*
X85422Y-75538D01*
X85366Y-75651D01*
X85309Y-75707D01*
X85197Y-75763D01*
X85084Y-75763D01*
X84972Y-75707D01*
X84916Y-75651D01*
X84859Y-75538D01*
X84803Y-75313D01*
X84803Y-75032D01*
X84859Y-74807D01*
X84916Y-74694D01*
X84972Y-74638D01*
X85084Y-74582D01*
X86491Y-74976D02*
X86491Y-75763D01*
X86209Y-74526D02*
X85928Y-75369D01*
X86659Y-75369D01*
X87672Y-74582D02*
X87109Y-74582D01*
X87053Y-75144D01*
X87109Y-75088D01*
X87222Y-75032D01*
X87503Y-75032D01*
X87615Y-75088D01*
X87672Y-75144D01*
X87728Y-75257D01*
X87728Y-75538D01*
X87672Y-75651D01*
X87615Y-75707D01*
X87503Y-75763D01*
X87222Y-75763D01*
X87109Y-75707D01*
X87053Y-75651D01*
X88178Y-74582D02*
X88178Y-74807D01*
X88628Y-74582D02*
X88628Y-74807D01*
X90371Y-76213D02*
X90315Y-76157D01*
X90203Y-75988D01*
X90146Y-75875D01*
X90090Y-75707D01*
X90034Y-75426D01*
X90034Y-75201D01*
X90090Y-74919D01*
X90146Y-74751D01*
X90203Y-74638D01*
X90315Y-74469D01*
X90371Y-74413D01*
X90709Y-74582D02*
X91440Y-74582D01*
X91046Y-75032D01*
X91215Y-75032D01*
X91327Y-75088D01*
X91384Y-75144D01*
X91440Y-75257D01*
X91440Y-75538D01*
X91384Y-75651D01*
X91327Y-75707D01*
X91215Y-75763D01*
X90877Y-75763D01*
X90765Y-75707D01*
X90709Y-75651D01*
X92846Y-75763D02*
X92846Y-74582D01*
X93352Y-75763D02*
X93352Y-75144D01*
X93296Y-75032D01*
X93183Y-74976D01*
X93015Y-74976D01*
X92902Y-75032D01*
X92846Y-75088D01*
X94083Y-75763D02*
X93971Y-75707D01*
X93915Y-75651D01*
X93858Y-75538D01*
X93858Y-75201D01*
X93915Y-75088D01*
X93971Y-75032D01*
X94083Y-74976D01*
X94252Y-74976D01*
X94365Y-75032D01*
X94421Y-75088D01*
X94477Y-75201D01*
X94477Y-75538D01*
X94421Y-75651D01*
X94365Y-75707D01*
X94252Y-75763D01*
X94083Y-75763D01*
X95152Y-75763D02*
X95039Y-75707D01*
X94983Y-75594D01*
X94983Y-74582D01*
X96052Y-75707D02*
X95939Y-75763D01*
X95714Y-75763D01*
X95602Y-75707D01*
X95546Y-75594D01*
X95546Y-75144D01*
X95602Y-75032D01*
X95714Y-74976D01*
X95939Y-74976D01*
X96052Y-75032D01*
X96108Y-75144D01*
X96108Y-75257D01*
X95546Y-75369D01*
X96558Y-75707D02*
X96670Y-75763D01*
X96895Y-75763D01*
X97008Y-75707D01*
X97064Y-75594D01*
X97064Y-75538D01*
X97008Y-75426D01*
X96895Y-75369D01*
X96727Y-75369D01*
X96614Y-75313D01*
X96558Y-75201D01*
X96558Y-75144D01*
X96614Y-75032D01*
X96727Y-74976D01*
X96895Y-74976D01*
X97008Y-75032D01*
X97458Y-76213D02*
X97514Y-76157D01*
X97627Y-75988D01*
X97683Y-75875D01*
X97739Y-75707D01*
X97795Y-75426D01*
X97795Y-75201D01*
X97739Y-74919D01*
X97683Y-74751D01*
X97627Y-74638D01*
X97514Y-74469D01*
X97458Y-74413D01*
M02*
