G04 (created by PCBNEW (2013-07-07 BZR 4022)-stable) date 24/05/2018 08:43:11*
%MOIN*%
G04 Gerber Fmt 3.4, Leading zero omitted, Abs format*
%FSLAX34Y34*%
G01*
G70*
G90*
G04 APERTURE LIST*
%ADD10C,0.00590551*%
%ADD11C,0.0866142*%
%ADD12R,0.11811X0.0984252*%
%ADD13R,0.062X0.09*%
%ADD14O,0.062X0.09*%
%ADD15C,0.0984252*%
%ADD16R,0.08X0.07*%
%ADD17C,0.08*%
%ADD18R,0.055X0.055*%
%ADD19C,0.055*%
%ADD20C,0.0708661*%
%ADD21C,0.035*%
%ADD22C,0.032*%
G04 APERTURE END LIST*
G54D10*
G54D11*
X76750Y-58500D03*
X76750Y-60000D03*
G54D12*
X74750Y-55598D03*
X76750Y-55598D03*
X78750Y-55598D03*
X84750Y-55598D03*
X86750Y-55598D03*
X88750Y-55598D03*
G54D11*
X74000Y-58500D03*
X74000Y-60000D03*
X85000Y-58750D03*
X88000Y-58750D03*
G54D13*
X80250Y-61750D03*
G54D14*
X81250Y-61750D03*
X82250Y-61750D03*
X83250Y-61750D03*
X83250Y-58750D03*
X82250Y-58750D03*
X81250Y-58750D03*
X80250Y-58750D03*
G54D15*
X76250Y-63750D03*
X77750Y-63750D03*
X90000Y-63750D03*
X86750Y-63750D03*
X88500Y-63750D03*
X77750Y-61500D03*
X76250Y-61500D03*
X85250Y-63750D03*
X83750Y-63750D03*
G54D16*
X73750Y-61750D03*
G54D17*
X73750Y-63750D03*
X73750Y-62750D03*
G54D11*
X90000Y-59500D03*
X90000Y-61000D03*
G54D18*
X79500Y-63750D03*
G54D19*
X80500Y-63750D03*
X81500Y-63750D03*
X82500Y-63750D03*
G54D11*
X85000Y-60250D03*
X88000Y-60250D03*
X87500Y-62000D03*
X85500Y-62000D03*
G54D20*
X81250Y-55500D03*
X82250Y-55500D03*
G54D21*
X79000Y-59750D03*
X87750Y-58000D03*
X85000Y-61250D03*
G54D22*
X75500Y-61250D02*
X75750Y-61500D01*
X76250Y-61500D02*
X75750Y-61500D01*
X75500Y-61250D02*
X75500Y-58500D01*
X74750Y-55500D02*
X75250Y-55500D01*
X75500Y-55750D02*
X75500Y-58500D01*
X75250Y-55500D02*
X75500Y-55750D01*
X80250Y-58750D02*
X80250Y-57500D01*
X84750Y-57000D02*
X84750Y-55500D01*
X84500Y-57250D02*
X84750Y-57000D01*
X80500Y-57250D02*
X84500Y-57250D01*
X80250Y-57500D02*
X80500Y-57250D01*
X76750Y-58500D02*
X80000Y-58500D01*
X80000Y-58500D02*
X80250Y-58750D01*
X75500Y-58500D02*
X76750Y-58500D01*
X79250Y-62750D02*
X81250Y-62750D01*
X81500Y-63000D02*
X81500Y-63750D01*
X81250Y-62750D02*
X81500Y-63000D01*
X79000Y-62500D02*
X79250Y-62750D01*
X79000Y-62500D02*
X79000Y-59750D01*
X82500Y-63750D02*
X82500Y-63000D01*
X82750Y-62750D02*
X84000Y-62750D01*
X82500Y-63000D02*
X82750Y-62750D01*
X81250Y-59750D02*
X81500Y-60000D01*
X84000Y-60000D02*
X84250Y-60250D01*
X84000Y-60000D02*
X81500Y-60000D01*
X84250Y-62500D02*
X84250Y-60250D01*
X84000Y-62750D02*
X84250Y-62500D01*
X81250Y-59750D02*
X81250Y-58750D01*
X83750Y-63750D02*
X83750Y-64500D01*
X90750Y-58000D02*
X87750Y-58000D01*
X91000Y-58250D02*
X90750Y-58000D01*
X91000Y-64500D02*
X91000Y-58250D01*
X90750Y-64750D02*
X91000Y-64500D01*
X84000Y-64750D02*
X90750Y-64750D01*
X83750Y-64500D02*
X84000Y-64750D01*
X86750Y-55500D02*
X86750Y-61000D01*
X86750Y-61000D02*
X86500Y-61250D01*
X86500Y-61250D02*
X85000Y-61250D01*
M02*
