G04 (created by PCBNEW (2013-07-07 BZR 4022)-stable) date 24/05/2018 08:43:11*
%MOIN*%
G04 Gerber Fmt 3.4, Leading zero omitted, Abs format*
%FSLAX34Y34*%
G01*
G70*
G90*
G04 APERTURE LIST*
%ADD10C,0.00590551*%
%ADD11C,0.0866142*%
%ADD12R,0.11811X0.0984252*%
%ADD13R,0.062X0.09*%
%ADD14O,0.062X0.09*%
%ADD15C,0.0984252*%
%ADD16R,0.08X0.07*%
%ADD17C,0.08*%
%ADD18R,0.055X0.055*%
%ADD19C,0.055*%
%ADD20C,0.0708661*%
%ADD21C,0.035*%
%ADD22C,0.032*%
%ADD23C,0.01*%
G04 APERTURE END LIST*
G54D10*
G54D11*
X76750Y-58500D03*
X76750Y-60000D03*
G54D12*
X74750Y-55598D03*
X76750Y-55598D03*
X78750Y-55598D03*
X84750Y-55598D03*
X86750Y-55598D03*
X88750Y-55598D03*
G54D11*
X74000Y-58500D03*
X74000Y-60000D03*
X85000Y-58750D03*
X88000Y-58750D03*
G54D13*
X80250Y-61750D03*
G54D14*
X81250Y-61750D03*
X82250Y-61750D03*
X83250Y-61750D03*
X83250Y-58750D03*
X82250Y-58750D03*
X81250Y-58750D03*
X80250Y-58750D03*
G54D15*
X76250Y-63750D03*
X77750Y-63750D03*
X90000Y-63750D03*
X86750Y-63750D03*
X88500Y-63750D03*
X77750Y-61500D03*
X76250Y-61500D03*
X85250Y-63750D03*
X83750Y-63750D03*
G54D16*
X73750Y-61750D03*
G54D17*
X73750Y-63750D03*
X73750Y-62750D03*
G54D11*
X90000Y-59500D03*
X90000Y-61000D03*
G54D18*
X79500Y-63750D03*
G54D19*
X80500Y-63750D03*
X81500Y-63750D03*
X82500Y-63750D03*
G54D11*
X85000Y-60250D03*
X88000Y-60250D03*
X87500Y-62000D03*
X85500Y-62000D03*
G54D20*
X81250Y-55500D03*
X82250Y-55500D03*
G54D21*
X79000Y-59750D03*
X87750Y-58000D03*
X85000Y-61250D03*
G54D22*
X88750Y-55000D02*
X88500Y-54750D01*
X73000Y-55000D02*
X73250Y-54750D01*
X73250Y-54750D02*
X78750Y-54750D01*
X78750Y-55500D02*
X78750Y-54750D01*
X78750Y-54750D02*
X88500Y-54750D01*
X88000Y-58750D02*
X88500Y-58750D01*
X88750Y-58500D02*
X88750Y-55500D01*
X88500Y-58750D02*
X88750Y-58500D01*
X88750Y-55000D02*
X88750Y-55500D01*
X75250Y-57500D02*
X75000Y-57250D01*
X73000Y-57000D02*
X73000Y-55000D01*
X73250Y-57250D02*
X75000Y-57250D01*
X73000Y-57000D02*
X73250Y-57250D01*
X75250Y-57500D02*
X75250Y-60000D01*
X85500Y-62000D02*
X86750Y-62000D01*
X86750Y-63750D02*
X86750Y-62000D01*
X86750Y-62000D02*
X86750Y-59000D01*
X86750Y-59000D02*
X87000Y-58750D01*
X87000Y-58750D02*
X88000Y-58750D01*
X73750Y-62750D02*
X77750Y-62750D01*
X77750Y-63750D02*
X77750Y-62750D01*
X77750Y-62750D02*
X77750Y-61500D01*
X85500Y-62000D02*
X83500Y-62000D01*
X83500Y-62000D02*
X83250Y-61750D01*
X86750Y-63750D02*
X88500Y-63750D01*
X77750Y-61500D02*
X77750Y-60250D01*
X77500Y-60000D02*
X76750Y-60000D01*
X77750Y-60250D02*
X77500Y-60000D01*
X74000Y-60000D02*
X75250Y-60000D01*
X75250Y-60000D02*
X76750Y-60000D01*
X90000Y-61000D02*
X90000Y-63750D01*
X80750Y-60500D02*
X78500Y-60500D01*
X78250Y-60250D02*
X78250Y-57500D01*
X78500Y-60500D02*
X78250Y-60250D01*
X77000Y-57250D02*
X76750Y-57000D01*
X81250Y-61000D02*
X80750Y-60500D01*
X78250Y-57500D02*
X78000Y-57250D01*
X78000Y-57250D02*
X77000Y-57250D01*
X81250Y-61750D02*
X81250Y-61000D01*
X76750Y-57000D02*
X76750Y-55500D01*
X73750Y-61750D02*
X76000Y-61750D01*
X76000Y-61750D02*
X76250Y-61500D01*
X73750Y-63750D02*
X72750Y-63750D01*
X72750Y-58500D02*
X74000Y-58500D01*
X72500Y-58750D02*
X72750Y-58500D01*
X72500Y-63500D02*
X72500Y-58750D01*
X72750Y-63750D02*
X72500Y-63500D01*
X76250Y-63750D02*
X73750Y-63750D01*
X90000Y-59500D02*
X88250Y-59500D01*
X88000Y-59750D02*
X88000Y-60250D01*
X88250Y-59500D02*
X88000Y-59750D01*
X87500Y-62000D02*
X87750Y-62000D01*
X88000Y-60250D02*
X88000Y-61750D01*
X87750Y-62000D02*
X88000Y-61750D01*
X82250Y-55500D02*
X82250Y-56500D01*
X85000Y-57000D02*
X85000Y-58750D01*
X84750Y-56750D02*
X85000Y-57000D01*
X82500Y-56750D02*
X84750Y-56750D01*
X82250Y-56500D02*
X82500Y-56750D01*
X79000Y-59750D02*
X82250Y-59750D01*
X85000Y-60250D02*
X82500Y-60250D01*
X82500Y-60250D02*
X82250Y-60000D01*
X82250Y-60000D02*
X82250Y-59750D01*
X82250Y-59750D02*
X82250Y-58750D01*
X82250Y-58750D02*
X82250Y-58250D01*
X82250Y-58250D02*
X81250Y-57250D01*
X81250Y-57250D02*
X81250Y-55500D01*
X82500Y-63750D02*
X82500Y-63000D01*
X85250Y-63000D02*
X85250Y-63750D01*
X85000Y-62750D02*
X85250Y-63000D01*
X82750Y-62750D02*
X85000Y-62750D01*
X82500Y-63000D02*
X82750Y-62750D01*
X85750Y-59500D02*
X83500Y-59500D01*
X83250Y-59250D02*
X83250Y-58750D01*
X83500Y-59500D02*
X83250Y-59250D01*
X86000Y-59250D02*
X85750Y-59500D01*
X86000Y-58250D02*
X86000Y-59250D01*
X86250Y-58000D02*
X86000Y-58250D01*
X87750Y-58000D02*
X86250Y-58000D01*
X83500Y-64750D02*
X83750Y-64500D01*
X80500Y-63750D02*
X80500Y-64500D01*
X83750Y-64500D02*
X83750Y-63750D01*
X80750Y-64750D02*
X83500Y-64750D01*
X80500Y-64500D02*
X80750Y-64750D01*
X80250Y-61750D02*
X79750Y-61750D01*
X79500Y-62000D02*
X79500Y-63750D01*
X79750Y-61750D02*
X79500Y-62000D01*
X85000Y-61250D02*
X84750Y-61000D01*
X84750Y-61000D02*
X82500Y-61000D01*
X82500Y-61000D02*
X82250Y-61250D01*
X82250Y-61250D02*
X82250Y-61750D01*
G54D10*
G36*
X84897Y-62340D02*
X83576Y-62340D01*
X83610Y-62321D01*
X83748Y-62150D01*
X83810Y-61940D01*
X83810Y-61800D01*
X83300Y-61800D01*
X83300Y-61807D01*
X83200Y-61807D01*
X83200Y-61800D01*
X83192Y-61800D01*
X83192Y-61700D01*
X83200Y-61700D01*
X83200Y-61692D01*
X83300Y-61692D01*
X83300Y-61700D01*
X83810Y-61700D01*
X83810Y-61560D01*
X83765Y-61410D01*
X84580Y-61410D01*
X84624Y-61454D01*
X84639Y-61490D01*
X84758Y-61610D01*
X84895Y-61666D01*
X84812Y-61886D01*
X84821Y-62158D01*
X84897Y-62340D01*
X84897Y-62340D01*
G37*
G54D23*
X84897Y-62340D02*
X83576Y-62340D01*
X83610Y-62321D01*
X83748Y-62150D01*
X83810Y-61940D01*
X83810Y-61800D01*
X83300Y-61800D01*
X83300Y-61807D01*
X83200Y-61807D01*
X83200Y-61800D01*
X83192Y-61800D01*
X83192Y-61700D01*
X83200Y-61700D01*
X83200Y-61692D01*
X83300Y-61692D01*
X83300Y-61700D01*
X83810Y-61700D01*
X83810Y-61560D01*
X83765Y-61410D01*
X84580Y-61410D01*
X84624Y-61454D01*
X84639Y-61490D01*
X84758Y-61610D01*
X84895Y-61666D01*
X84812Y-61886D01*
X84821Y-62158D01*
X84897Y-62340D01*
G54D10*
G36*
X91230Y-64980D02*
X90742Y-64980D01*
X90742Y-63603D01*
X90629Y-63330D01*
X90420Y-63121D01*
X90410Y-63116D01*
X90410Y-61555D01*
X90578Y-61387D01*
X90682Y-61136D01*
X90683Y-60864D01*
X90683Y-59364D01*
X90579Y-59113D01*
X90387Y-58921D01*
X90136Y-58817D01*
X89864Y-58816D01*
X89613Y-58920D01*
X89590Y-58943D01*
X89590Y-56041D01*
X89590Y-55155D01*
X89590Y-55056D01*
X89552Y-54964D01*
X89481Y-54894D01*
X89390Y-54856D01*
X88862Y-54856D01*
X88800Y-54918D01*
X88800Y-55548D01*
X89528Y-55548D01*
X89590Y-55485D01*
X89590Y-55155D01*
X89590Y-56041D01*
X89590Y-55710D01*
X89528Y-55648D01*
X88800Y-55648D01*
X88800Y-56278D01*
X88862Y-56340D01*
X89390Y-56340D01*
X89481Y-56302D01*
X89552Y-56232D01*
X89590Y-56140D01*
X89590Y-56041D01*
X89590Y-58943D01*
X89443Y-59090D01*
X88700Y-59090D01*
X88700Y-56278D01*
X88700Y-55648D01*
X88700Y-55548D01*
X88700Y-54918D01*
X88637Y-54856D01*
X88109Y-54856D01*
X88018Y-54894D01*
X87947Y-54964D01*
X87909Y-55056D01*
X87909Y-55155D01*
X87909Y-55485D01*
X87971Y-55548D01*
X88700Y-55548D01*
X88700Y-55648D01*
X87971Y-55648D01*
X87909Y-55710D01*
X87909Y-56041D01*
X87909Y-56140D01*
X87947Y-56232D01*
X88018Y-56302D01*
X88109Y-56340D01*
X88637Y-56340D01*
X88700Y-56278D01*
X88700Y-59090D01*
X88601Y-59090D01*
X88687Y-58863D01*
X88678Y-58591D01*
X88591Y-58382D01*
X88482Y-58338D01*
X88070Y-58750D01*
X88076Y-58755D01*
X88005Y-58826D01*
X88000Y-58820D01*
X87588Y-59232D01*
X87632Y-59341D01*
X87775Y-59395D01*
X87710Y-59460D01*
X87621Y-59593D01*
X87603Y-59680D01*
X87421Y-59862D01*
X87317Y-60113D01*
X87316Y-60385D01*
X87420Y-60636D01*
X87590Y-60806D01*
X87590Y-61317D01*
X87364Y-61316D01*
X87113Y-61420D01*
X86921Y-61612D01*
X86817Y-61863D01*
X86816Y-62135D01*
X86920Y-62386D01*
X87112Y-62578D01*
X87363Y-62682D01*
X87635Y-62683D01*
X87886Y-62579D01*
X88078Y-62387D01*
X88175Y-62154D01*
X88289Y-62039D01*
X88378Y-61906D01*
X88410Y-61750D01*
X88410Y-60805D01*
X88578Y-60637D01*
X88682Y-60386D01*
X88683Y-60114D01*
X88598Y-59910D01*
X89444Y-59910D01*
X89612Y-60078D01*
X89863Y-60182D01*
X90135Y-60183D01*
X90386Y-60079D01*
X90578Y-59887D01*
X90682Y-59636D01*
X90683Y-59364D01*
X90683Y-60864D01*
X90579Y-60613D01*
X90387Y-60421D01*
X90136Y-60317D01*
X89864Y-60316D01*
X89613Y-60420D01*
X89421Y-60612D01*
X89317Y-60863D01*
X89316Y-61135D01*
X89420Y-61386D01*
X89590Y-61556D01*
X89590Y-63116D01*
X89580Y-63120D01*
X89371Y-63329D01*
X89258Y-63601D01*
X89257Y-63896D01*
X89370Y-64169D01*
X89579Y-64378D01*
X89851Y-64491D01*
X90146Y-64492D01*
X90419Y-64379D01*
X90628Y-64170D01*
X90741Y-63898D01*
X90742Y-63603D01*
X90742Y-64980D01*
X89245Y-64980D01*
X89245Y-63877D01*
X89237Y-63582D01*
X89140Y-63346D01*
X89024Y-63295D01*
X88954Y-63366D01*
X88954Y-63225D01*
X88903Y-63109D01*
X88627Y-63004D01*
X88332Y-63012D01*
X88096Y-63109D01*
X88045Y-63225D01*
X88500Y-63679D01*
X88954Y-63225D01*
X88954Y-63366D01*
X88570Y-63750D01*
X89024Y-64204D01*
X89140Y-64153D01*
X89245Y-63877D01*
X89245Y-64980D01*
X88954Y-64980D01*
X88954Y-64274D01*
X88500Y-63820D01*
X88429Y-63891D01*
X88429Y-63750D01*
X87975Y-63295D01*
X87859Y-63346D01*
X87754Y-63622D01*
X87762Y-63917D01*
X87859Y-64153D01*
X87975Y-64204D01*
X88429Y-63750D01*
X88429Y-63891D01*
X88045Y-64274D01*
X88096Y-64390D01*
X88372Y-64495D01*
X88667Y-64487D01*
X88903Y-64390D01*
X88954Y-64274D01*
X88954Y-64980D01*
X87495Y-64980D01*
X87495Y-63877D01*
X87487Y-63582D01*
X87390Y-63346D01*
X87274Y-63295D01*
X87204Y-63366D01*
X87204Y-63225D01*
X87153Y-63109D01*
X86877Y-63004D01*
X86582Y-63012D01*
X86346Y-63109D01*
X86295Y-63225D01*
X86750Y-63679D01*
X87204Y-63225D01*
X87204Y-63366D01*
X86820Y-63750D01*
X87274Y-64204D01*
X87390Y-64153D01*
X87495Y-63877D01*
X87495Y-64980D01*
X87204Y-64980D01*
X87204Y-64274D01*
X86750Y-63820D01*
X86679Y-63891D01*
X86679Y-63750D01*
X86225Y-63295D01*
X86187Y-63312D01*
X86187Y-62113D01*
X86178Y-61841D01*
X86091Y-61632D01*
X85982Y-61588D01*
X85570Y-62000D01*
X85982Y-62411D01*
X86091Y-62367D01*
X86187Y-62113D01*
X86187Y-63312D01*
X86109Y-63346D01*
X86004Y-63622D01*
X86012Y-63917D01*
X86109Y-64153D01*
X86225Y-64204D01*
X86679Y-63750D01*
X86679Y-63891D01*
X86295Y-64274D01*
X86346Y-64390D01*
X86622Y-64495D01*
X86917Y-64487D01*
X87153Y-64390D01*
X87204Y-64274D01*
X87204Y-64980D01*
X83849Y-64980D01*
X84039Y-64789D01*
X84128Y-64656D01*
X84160Y-64500D01*
X84160Y-64383D01*
X84169Y-64379D01*
X84378Y-64170D01*
X84491Y-63898D01*
X84492Y-63603D01*
X84379Y-63330D01*
X84209Y-63160D01*
X84790Y-63160D01*
X84621Y-63329D01*
X84508Y-63601D01*
X84507Y-63896D01*
X84620Y-64169D01*
X84829Y-64378D01*
X85101Y-64491D01*
X85396Y-64492D01*
X85669Y-64379D01*
X85878Y-64170D01*
X85991Y-63898D01*
X85992Y-63603D01*
X85879Y-63330D01*
X85670Y-63121D01*
X85660Y-63116D01*
X85660Y-63000D01*
X85628Y-62843D01*
X85539Y-62710D01*
X85512Y-62683D01*
X85658Y-62678D01*
X85867Y-62591D01*
X85911Y-62482D01*
X85500Y-62070D01*
X85494Y-62076D01*
X85423Y-62005D01*
X85429Y-62000D01*
X85423Y-61994D01*
X85494Y-61923D01*
X85500Y-61929D01*
X85911Y-61517D01*
X85867Y-61408D01*
X85613Y-61312D01*
X85424Y-61319D01*
X85425Y-61165D01*
X85360Y-61009D01*
X85241Y-60889D01*
X85240Y-60889D01*
X85386Y-60829D01*
X85578Y-60637D01*
X85682Y-60386D01*
X85683Y-60114D01*
X85598Y-59910D01*
X85750Y-59910D01*
X85906Y-59878D01*
X85906Y-59878D01*
X86039Y-59789D01*
X86289Y-59539D01*
X86378Y-59406D01*
X86410Y-59250D01*
X86410Y-58419D01*
X86419Y-58410D01*
X87398Y-58410D01*
X87312Y-58636D01*
X87321Y-58908D01*
X87408Y-59117D01*
X87517Y-59161D01*
X87929Y-58750D01*
X87923Y-58744D01*
X87994Y-58673D01*
X88000Y-58679D01*
X88411Y-58267D01*
X88367Y-58158D01*
X88174Y-58085D01*
X88174Y-58084D01*
X88175Y-57915D01*
X88110Y-57759D01*
X87991Y-57639D01*
X87834Y-57575D01*
X87665Y-57574D01*
X87629Y-57590D01*
X87590Y-57590D01*
X87590Y-56041D01*
X87590Y-55056D01*
X87552Y-54964D01*
X87482Y-54894D01*
X87390Y-54856D01*
X87291Y-54856D01*
X86109Y-54856D01*
X86018Y-54894D01*
X85947Y-54964D01*
X85909Y-55056D01*
X85909Y-55155D01*
X85909Y-56140D01*
X85947Y-56231D01*
X86017Y-56302D01*
X86109Y-56340D01*
X86208Y-56340D01*
X87390Y-56340D01*
X87481Y-56302D01*
X87552Y-56232D01*
X87590Y-56140D01*
X87590Y-56041D01*
X87590Y-57590D01*
X86250Y-57590D01*
X86093Y-57621D01*
X85960Y-57710D01*
X85710Y-57960D01*
X85621Y-58093D01*
X85590Y-58250D01*
X85590Y-58389D01*
X85579Y-58363D01*
X85410Y-58193D01*
X85410Y-57000D01*
X85378Y-56843D01*
X85289Y-56710D01*
X85039Y-56460D01*
X84906Y-56371D01*
X84752Y-56340D01*
X85390Y-56340D01*
X85481Y-56302D01*
X85552Y-56232D01*
X85590Y-56140D01*
X85590Y-56041D01*
X85590Y-55056D01*
X85552Y-54964D01*
X85482Y-54894D01*
X85390Y-54856D01*
X85291Y-54856D01*
X84109Y-54856D01*
X84018Y-54894D01*
X83947Y-54964D01*
X83909Y-55056D01*
X83909Y-55155D01*
X83909Y-56140D01*
X83947Y-56231D01*
X84017Y-56302D01*
X84108Y-56340D01*
X82669Y-56340D01*
X82660Y-56330D01*
X82660Y-55944D01*
X82762Y-55842D01*
X82854Y-55620D01*
X82854Y-55380D01*
X82762Y-55158D01*
X82592Y-54987D01*
X82370Y-54895D01*
X82130Y-54895D01*
X81908Y-54987D01*
X81749Y-55145D01*
X81592Y-54987D01*
X81370Y-54895D01*
X81130Y-54895D01*
X80908Y-54987D01*
X80737Y-55157D01*
X80645Y-55379D01*
X80645Y-55619D01*
X80737Y-55841D01*
X80840Y-55944D01*
X80840Y-57250D01*
X80871Y-57406D01*
X80960Y-57539D01*
X81569Y-58148D01*
X81464Y-58078D01*
X81250Y-58036D01*
X81035Y-58078D01*
X80854Y-58200D01*
X80750Y-58355D01*
X80645Y-58200D01*
X80464Y-58078D01*
X80250Y-58036D01*
X80035Y-58078D01*
X79854Y-58200D01*
X79732Y-58381D01*
X79690Y-58596D01*
X79690Y-58903D01*
X79732Y-59118D01*
X79854Y-59299D01*
X79914Y-59340D01*
X79590Y-59340D01*
X79590Y-56041D01*
X79590Y-55155D01*
X79590Y-55056D01*
X79552Y-54964D01*
X79481Y-54894D01*
X79390Y-54856D01*
X78862Y-54856D01*
X78800Y-54918D01*
X78800Y-55548D01*
X79528Y-55548D01*
X79590Y-55485D01*
X79590Y-55155D01*
X79590Y-56041D01*
X79590Y-55710D01*
X79528Y-55648D01*
X78800Y-55648D01*
X78800Y-56278D01*
X78862Y-56340D01*
X79390Y-56340D01*
X79481Y-56302D01*
X79552Y-56232D01*
X79590Y-56140D01*
X79590Y-56041D01*
X79590Y-59340D01*
X79120Y-59340D01*
X79084Y-59325D01*
X78915Y-59324D01*
X78759Y-59389D01*
X78700Y-59448D01*
X78700Y-56278D01*
X78700Y-55648D01*
X78700Y-55548D01*
X78700Y-54918D01*
X78637Y-54856D01*
X78109Y-54856D01*
X78018Y-54894D01*
X77947Y-54964D01*
X77909Y-55056D01*
X77909Y-55155D01*
X77909Y-55485D01*
X77971Y-55548D01*
X78700Y-55548D01*
X78700Y-55648D01*
X77971Y-55648D01*
X77909Y-55710D01*
X77909Y-56041D01*
X77909Y-56140D01*
X77947Y-56232D01*
X78018Y-56302D01*
X78109Y-56340D01*
X78637Y-56340D01*
X78700Y-56278D01*
X78700Y-59448D01*
X78660Y-59488D01*
X78660Y-57500D01*
X78628Y-57343D01*
X78539Y-57210D01*
X78289Y-56960D01*
X78156Y-56871D01*
X78000Y-56840D01*
X77169Y-56840D01*
X77160Y-56830D01*
X77160Y-56340D01*
X77390Y-56340D01*
X77481Y-56302D01*
X77552Y-56232D01*
X77590Y-56140D01*
X77590Y-56041D01*
X77590Y-55056D01*
X77552Y-54964D01*
X77482Y-54894D01*
X77390Y-54856D01*
X77291Y-54856D01*
X76109Y-54856D01*
X76018Y-54894D01*
X75947Y-54964D01*
X75909Y-55056D01*
X75909Y-55155D01*
X75909Y-56140D01*
X75947Y-56231D01*
X76017Y-56302D01*
X76109Y-56340D01*
X76208Y-56340D01*
X76340Y-56340D01*
X76340Y-57000D01*
X76371Y-57156D01*
X76460Y-57289D01*
X76710Y-57539D01*
X76843Y-57628D01*
X77000Y-57660D01*
X77830Y-57660D01*
X77840Y-57669D01*
X77840Y-60250D01*
X77871Y-60406D01*
X77960Y-60539D01*
X78210Y-60789D01*
X78343Y-60878D01*
X78500Y-60910D01*
X80580Y-60910D01*
X80840Y-61169D01*
X80840Y-61221D01*
X80810Y-61266D01*
X80810Y-61250D01*
X80772Y-61158D01*
X80701Y-61088D01*
X80609Y-61050D01*
X80510Y-61049D01*
X79890Y-61049D01*
X79798Y-61087D01*
X79728Y-61158D01*
X79690Y-61250D01*
X79689Y-61349D01*
X79689Y-61351D01*
X79593Y-61371D01*
X79460Y-61460D01*
X79210Y-61710D01*
X79121Y-61843D01*
X79090Y-62000D01*
X79090Y-63260D01*
X79083Y-63262D01*
X79013Y-63333D01*
X78975Y-63425D01*
X78974Y-63524D01*
X78974Y-64074D01*
X79012Y-64166D01*
X79083Y-64236D01*
X79175Y-64274D01*
X79274Y-64275D01*
X79824Y-64275D01*
X79916Y-64237D01*
X79986Y-64166D01*
X80024Y-64074D01*
X80025Y-63975D01*
X80025Y-63975D01*
X80054Y-64047D01*
X80090Y-64082D01*
X80090Y-64500D01*
X80121Y-64656D01*
X80210Y-64789D01*
X80400Y-64980D01*
X78495Y-64980D01*
X78495Y-63877D01*
X78495Y-61627D01*
X78487Y-61332D01*
X78390Y-61096D01*
X78274Y-61045D01*
X78204Y-61116D01*
X78204Y-60975D01*
X78153Y-60859D01*
X77877Y-60754D01*
X77582Y-60762D01*
X77437Y-60822D01*
X77437Y-60113D01*
X77433Y-59992D01*
X77433Y-58364D01*
X77329Y-58113D01*
X77137Y-57921D01*
X76886Y-57817D01*
X76614Y-57816D01*
X76363Y-57920D01*
X76171Y-58112D01*
X76067Y-58363D01*
X76066Y-58635D01*
X76170Y-58886D01*
X76362Y-59078D01*
X76613Y-59182D01*
X76885Y-59183D01*
X77136Y-59079D01*
X77328Y-58887D01*
X77432Y-58636D01*
X77433Y-58364D01*
X77433Y-59992D01*
X77428Y-59841D01*
X77341Y-59632D01*
X77232Y-59588D01*
X77161Y-59659D01*
X77161Y-59517D01*
X77117Y-59408D01*
X76863Y-59312D01*
X76591Y-59321D01*
X76382Y-59408D01*
X76338Y-59517D01*
X76750Y-59929D01*
X77161Y-59517D01*
X77161Y-59659D01*
X76820Y-60000D01*
X77232Y-60411D01*
X77341Y-60367D01*
X77437Y-60113D01*
X77437Y-60822D01*
X77346Y-60859D01*
X77295Y-60975D01*
X77750Y-61429D01*
X78204Y-60975D01*
X78204Y-61116D01*
X77820Y-61500D01*
X78274Y-61954D01*
X78390Y-61903D01*
X78495Y-61627D01*
X78495Y-63877D01*
X78487Y-63582D01*
X78390Y-63346D01*
X78274Y-63295D01*
X78204Y-63366D01*
X78204Y-63225D01*
X78204Y-62024D01*
X77750Y-61570D01*
X77679Y-61641D01*
X77679Y-61500D01*
X77225Y-61045D01*
X77161Y-61073D01*
X77161Y-60482D01*
X76750Y-60070D01*
X76679Y-60141D01*
X76679Y-60000D01*
X76267Y-59588D01*
X76158Y-59632D01*
X76062Y-59886D01*
X76071Y-60158D01*
X76158Y-60367D01*
X76267Y-60411D01*
X76679Y-60000D01*
X76679Y-60141D01*
X76338Y-60482D01*
X76382Y-60591D01*
X76636Y-60687D01*
X76908Y-60678D01*
X77117Y-60591D01*
X77161Y-60482D01*
X77161Y-61073D01*
X77109Y-61096D01*
X77004Y-61372D01*
X77012Y-61667D01*
X77109Y-61903D01*
X77225Y-61954D01*
X77679Y-61500D01*
X77679Y-61641D01*
X77295Y-62024D01*
X77346Y-62140D01*
X77622Y-62245D01*
X77917Y-62237D01*
X78153Y-62140D01*
X78204Y-62024D01*
X78204Y-63225D01*
X78153Y-63109D01*
X77877Y-63004D01*
X77582Y-63012D01*
X77346Y-63109D01*
X77295Y-63225D01*
X77750Y-63679D01*
X78204Y-63225D01*
X78204Y-63366D01*
X77820Y-63750D01*
X78274Y-64204D01*
X78390Y-64153D01*
X78495Y-63877D01*
X78495Y-64980D01*
X78204Y-64980D01*
X78204Y-64274D01*
X77750Y-63820D01*
X77679Y-63891D01*
X77679Y-63750D01*
X77225Y-63295D01*
X77109Y-63346D01*
X77004Y-63622D01*
X77012Y-63917D01*
X77109Y-64153D01*
X77225Y-64204D01*
X77679Y-63750D01*
X77679Y-63891D01*
X77295Y-64274D01*
X77346Y-64390D01*
X77622Y-64495D01*
X77917Y-64487D01*
X78153Y-64390D01*
X78204Y-64274D01*
X78204Y-64980D01*
X72269Y-64980D01*
X72269Y-63849D01*
X72460Y-64039D01*
X72593Y-64128D01*
X72750Y-64160D01*
X73240Y-64160D01*
X73381Y-64300D01*
X73620Y-64399D01*
X73878Y-64400D01*
X74117Y-64301D01*
X74259Y-64160D01*
X75616Y-64160D01*
X75620Y-64169D01*
X75829Y-64378D01*
X76101Y-64491D01*
X76396Y-64492D01*
X76669Y-64379D01*
X76878Y-64170D01*
X76991Y-63898D01*
X76992Y-63603D01*
X76992Y-61353D01*
X76879Y-61080D01*
X76670Y-60871D01*
X76398Y-60758D01*
X76103Y-60757D01*
X75830Y-60870D01*
X75621Y-61079D01*
X75590Y-61152D01*
X75590Y-56041D01*
X75590Y-55056D01*
X75552Y-54964D01*
X75482Y-54894D01*
X75390Y-54856D01*
X75291Y-54856D01*
X74109Y-54856D01*
X74018Y-54894D01*
X73947Y-54964D01*
X73909Y-55056D01*
X73909Y-55155D01*
X73909Y-56140D01*
X73947Y-56231D01*
X74017Y-56302D01*
X74109Y-56340D01*
X74208Y-56340D01*
X75390Y-56340D01*
X75481Y-56302D01*
X75552Y-56232D01*
X75590Y-56140D01*
X75590Y-56041D01*
X75590Y-61152D01*
X75512Y-61340D01*
X74687Y-61340D01*
X74687Y-60113D01*
X74678Y-59841D01*
X74591Y-59632D01*
X74482Y-59588D01*
X74411Y-59659D01*
X74411Y-59517D01*
X74367Y-59408D01*
X74113Y-59312D01*
X73841Y-59321D01*
X73632Y-59408D01*
X73588Y-59517D01*
X74000Y-59929D01*
X74411Y-59517D01*
X74411Y-59659D01*
X74070Y-60000D01*
X74482Y-60411D01*
X74591Y-60367D01*
X74687Y-60113D01*
X74687Y-61340D01*
X74411Y-61340D01*
X74411Y-60482D01*
X74000Y-60070D01*
X73929Y-60141D01*
X73929Y-60000D01*
X73517Y-59588D01*
X73408Y-59632D01*
X73312Y-59886D01*
X73321Y-60158D01*
X73408Y-60367D01*
X73517Y-60411D01*
X73929Y-60000D01*
X73929Y-60141D01*
X73588Y-60482D01*
X73632Y-60591D01*
X73886Y-60687D01*
X74158Y-60678D01*
X74367Y-60591D01*
X74411Y-60482D01*
X74411Y-61340D01*
X74395Y-61340D01*
X74362Y-61258D01*
X74291Y-61188D01*
X74199Y-61150D01*
X74100Y-61149D01*
X73300Y-61149D01*
X73208Y-61187D01*
X73138Y-61258D01*
X73100Y-61350D01*
X73099Y-61449D01*
X73099Y-62149D01*
X73137Y-62241D01*
X73208Y-62311D01*
X73264Y-62335D01*
X73291Y-62362D01*
X73185Y-62402D01*
X73095Y-62644D01*
X73105Y-62902D01*
X73185Y-63097D01*
X73291Y-63137D01*
X73679Y-62750D01*
X73673Y-62744D01*
X73744Y-62673D01*
X73750Y-62679D01*
X73755Y-62673D01*
X73826Y-62744D01*
X73820Y-62750D01*
X74208Y-63137D01*
X74314Y-63097D01*
X74404Y-62855D01*
X74394Y-62597D01*
X74314Y-62402D01*
X74208Y-62362D01*
X74235Y-62335D01*
X74291Y-62312D01*
X74361Y-62241D01*
X74395Y-62160D01*
X75904Y-62160D01*
X76101Y-62241D01*
X76396Y-62242D01*
X76669Y-62129D01*
X76878Y-61920D01*
X76991Y-61648D01*
X76992Y-61353D01*
X76992Y-63603D01*
X76879Y-63330D01*
X76670Y-63121D01*
X76398Y-63008D01*
X76103Y-63007D01*
X75830Y-63120D01*
X75621Y-63329D01*
X75616Y-63340D01*
X74404Y-63340D01*
X74259Y-63340D01*
X74134Y-63215D01*
X74137Y-63208D01*
X73750Y-62820D01*
X73679Y-62891D01*
X73362Y-63208D01*
X73365Y-63215D01*
X73240Y-63340D01*
X72919Y-63340D01*
X72910Y-63330D01*
X72910Y-58919D01*
X72919Y-58910D01*
X73444Y-58910D01*
X73612Y-59078D01*
X73863Y-59182D01*
X74135Y-59183D01*
X74386Y-59079D01*
X74578Y-58887D01*
X74682Y-58636D01*
X74683Y-58364D01*
X74579Y-58113D01*
X74387Y-57921D01*
X74136Y-57817D01*
X73864Y-57816D01*
X73613Y-57920D01*
X73443Y-58090D01*
X72750Y-58090D01*
X72593Y-58121D01*
X72460Y-58210D01*
X72269Y-58400D01*
X72269Y-54519D01*
X91230Y-54519D01*
X91230Y-64980D01*
X91230Y-64980D01*
G37*
G54D23*
X91230Y-64980D02*
X90742Y-64980D01*
X90742Y-63603D01*
X90629Y-63330D01*
X90420Y-63121D01*
X90410Y-63116D01*
X90410Y-61555D01*
X90578Y-61387D01*
X90682Y-61136D01*
X90683Y-60864D01*
X90683Y-59364D01*
X90579Y-59113D01*
X90387Y-58921D01*
X90136Y-58817D01*
X89864Y-58816D01*
X89613Y-58920D01*
X89590Y-58943D01*
X89590Y-56041D01*
X89590Y-55155D01*
X89590Y-55056D01*
X89552Y-54964D01*
X89481Y-54894D01*
X89390Y-54856D01*
X88862Y-54856D01*
X88800Y-54918D01*
X88800Y-55548D01*
X89528Y-55548D01*
X89590Y-55485D01*
X89590Y-55155D01*
X89590Y-56041D01*
X89590Y-55710D01*
X89528Y-55648D01*
X88800Y-55648D01*
X88800Y-56278D01*
X88862Y-56340D01*
X89390Y-56340D01*
X89481Y-56302D01*
X89552Y-56232D01*
X89590Y-56140D01*
X89590Y-56041D01*
X89590Y-58943D01*
X89443Y-59090D01*
X88700Y-59090D01*
X88700Y-56278D01*
X88700Y-55648D01*
X88700Y-55548D01*
X88700Y-54918D01*
X88637Y-54856D01*
X88109Y-54856D01*
X88018Y-54894D01*
X87947Y-54964D01*
X87909Y-55056D01*
X87909Y-55155D01*
X87909Y-55485D01*
X87971Y-55548D01*
X88700Y-55548D01*
X88700Y-55648D01*
X87971Y-55648D01*
X87909Y-55710D01*
X87909Y-56041D01*
X87909Y-56140D01*
X87947Y-56232D01*
X88018Y-56302D01*
X88109Y-56340D01*
X88637Y-56340D01*
X88700Y-56278D01*
X88700Y-59090D01*
X88601Y-59090D01*
X88687Y-58863D01*
X88678Y-58591D01*
X88591Y-58382D01*
X88482Y-58338D01*
X88070Y-58750D01*
X88076Y-58755D01*
X88005Y-58826D01*
X88000Y-58820D01*
X87588Y-59232D01*
X87632Y-59341D01*
X87775Y-59395D01*
X87710Y-59460D01*
X87621Y-59593D01*
X87603Y-59680D01*
X87421Y-59862D01*
X87317Y-60113D01*
X87316Y-60385D01*
X87420Y-60636D01*
X87590Y-60806D01*
X87590Y-61317D01*
X87364Y-61316D01*
X87113Y-61420D01*
X86921Y-61612D01*
X86817Y-61863D01*
X86816Y-62135D01*
X86920Y-62386D01*
X87112Y-62578D01*
X87363Y-62682D01*
X87635Y-62683D01*
X87886Y-62579D01*
X88078Y-62387D01*
X88175Y-62154D01*
X88289Y-62039D01*
X88378Y-61906D01*
X88410Y-61750D01*
X88410Y-60805D01*
X88578Y-60637D01*
X88682Y-60386D01*
X88683Y-60114D01*
X88598Y-59910D01*
X89444Y-59910D01*
X89612Y-60078D01*
X89863Y-60182D01*
X90135Y-60183D01*
X90386Y-60079D01*
X90578Y-59887D01*
X90682Y-59636D01*
X90683Y-59364D01*
X90683Y-60864D01*
X90579Y-60613D01*
X90387Y-60421D01*
X90136Y-60317D01*
X89864Y-60316D01*
X89613Y-60420D01*
X89421Y-60612D01*
X89317Y-60863D01*
X89316Y-61135D01*
X89420Y-61386D01*
X89590Y-61556D01*
X89590Y-63116D01*
X89580Y-63120D01*
X89371Y-63329D01*
X89258Y-63601D01*
X89257Y-63896D01*
X89370Y-64169D01*
X89579Y-64378D01*
X89851Y-64491D01*
X90146Y-64492D01*
X90419Y-64379D01*
X90628Y-64170D01*
X90741Y-63898D01*
X90742Y-63603D01*
X90742Y-64980D01*
X89245Y-64980D01*
X89245Y-63877D01*
X89237Y-63582D01*
X89140Y-63346D01*
X89024Y-63295D01*
X88954Y-63366D01*
X88954Y-63225D01*
X88903Y-63109D01*
X88627Y-63004D01*
X88332Y-63012D01*
X88096Y-63109D01*
X88045Y-63225D01*
X88500Y-63679D01*
X88954Y-63225D01*
X88954Y-63366D01*
X88570Y-63750D01*
X89024Y-64204D01*
X89140Y-64153D01*
X89245Y-63877D01*
X89245Y-64980D01*
X88954Y-64980D01*
X88954Y-64274D01*
X88500Y-63820D01*
X88429Y-63891D01*
X88429Y-63750D01*
X87975Y-63295D01*
X87859Y-63346D01*
X87754Y-63622D01*
X87762Y-63917D01*
X87859Y-64153D01*
X87975Y-64204D01*
X88429Y-63750D01*
X88429Y-63891D01*
X88045Y-64274D01*
X88096Y-64390D01*
X88372Y-64495D01*
X88667Y-64487D01*
X88903Y-64390D01*
X88954Y-64274D01*
X88954Y-64980D01*
X87495Y-64980D01*
X87495Y-63877D01*
X87487Y-63582D01*
X87390Y-63346D01*
X87274Y-63295D01*
X87204Y-63366D01*
X87204Y-63225D01*
X87153Y-63109D01*
X86877Y-63004D01*
X86582Y-63012D01*
X86346Y-63109D01*
X86295Y-63225D01*
X86750Y-63679D01*
X87204Y-63225D01*
X87204Y-63366D01*
X86820Y-63750D01*
X87274Y-64204D01*
X87390Y-64153D01*
X87495Y-63877D01*
X87495Y-64980D01*
X87204Y-64980D01*
X87204Y-64274D01*
X86750Y-63820D01*
X86679Y-63891D01*
X86679Y-63750D01*
X86225Y-63295D01*
X86187Y-63312D01*
X86187Y-62113D01*
X86178Y-61841D01*
X86091Y-61632D01*
X85982Y-61588D01*
X85570Y-62000D01*
X85982Y-62411D01*
X86091Y-62367D01*
X86187Y-62113D01*
X86187Y-63312D01*
X86109Y-63346D01*
X86004Y-63622D01*
X86012Y-63917D01*
X86109Y-64153D01*
X86225Y-64204D01*
X86679Y-63750D01*
X86679Y-63891D01*
X86295Y-64274D01*
X86346Y-64390D01*
X86622Y-64495D01*
X86917Y-64487D01*
X87153Y-64390D01*
X87204Y-64274D01*
X87204Y-64980D01*
X83849Y-64980D01*
X84039Y-64789D01*
X84128Y-64656D01*
X84160Y-64500D01*
X84160Y-64383D01*
X84169Y-64379D01*
X84378Y-64170D01*
X84491Y-63898D01*
X84492Y-63603D01*
X84379Y-63330D01*
X84209Y-63160D01*
X84790Y-63160D01*
X84621Y-63329D01*
X84508Y-63601D01*
X84507Y-63896D01*
X84620Y-64169D01*
X84829Y-64378D01*
X85101Y-64491D01*
X85396Y-64492D01*
X85669Y-64379D01*
X85878Y-64170D01*
X85991Y-63898D01*
X85992Y-63603D01*
X85879Y-63330D01*
X85670Y-63121D01*
X85660Y-63116D01*
X85660Y-63000D01*
X85628Y-62843D01*
X85539Y-62710D01*
X85512Y-62683D01*
X85658Y-62678D01*
X85867Y-62591D01*
X85911Y-62482D01*
X85500Y-62070D01*
X85494Y-62076D01*
X85423Y-62005D01*
X85429Y-62000D01*
X85423Y-61994D01*
X85494Y-61923D01*
X85500Y-61929D01*
X85911Y-61517D01*
X85867Y-61408D01*
X85613Y-61312D01*
X85424Y-61319D01*
X85425Y-61165D01*
X85360Y-61009D01*
X85241Y-60889D01*
X85240Y-60889D01*
X85386Y-60829D01*
X85578Y-60637D01*
X85682Y-60386D01*
X85683Y-60114D01*
X85598Y-59910D01*
X85750Y-59910D01*
X85906Y-59878D01*
X85906Y-59878D01*
X86039Y-59789D01*
X86289Y-59539D01*
X86378Y-59406D01*
X86410Y-59250D01*
X86410Y-58419D01*
X86419Y-58410D01*
X87398Y-58410D01*
X87312Y-58636D01*
X87321Y-58908D01*
X87408Y-59117D01*
X87517Y-59161D01*
X87929Y-58750D01*
X87923Y-58744D01*
X87994Y-58673D01*
X88000Y-58679D01*
X88411Y-58267D01*
X88367Y-58158D01*
X88174Y-58085D01*
X88174Y-58084D01*
X88175Y-57915D01*
X88110Y-57759D01*
X87991Y-57639D01*
X87834Y-57575D01*
X87665Y-57574D01*
X87629Y-57590D01*
X87590Y-57590D01*
X87590Y-56041D01*
X87590Y-55056D01*
X87552Y-54964D01*
X87482Y-54894D01*
X87390Y-54856D01*
X87291Y-54856D01*
X86109Y-54856D01*
X86018Y-54894D01*
X85947Y-54964D01*
X85909Y-55056D01*
X85909Y-55155D01*
X85909Y-56140D01*
X85947Y-56231D01*
X86017Y-56302D01*
X86109Y-56340D01*
X86208Y-56340D01*
X87390Y-56340D01*
X87481Y-56302D01*
X87552Y-56232D01*
X87590Y-56140D01*
X87590Y-56041D01*
X87590Y-57590D01*
X86250Y-57590D01*
X86093Y-57621D01*
X85960Y-57710D01*
X85710Y-57960D01*
X85621Y-58093D01*
X85590Y-58250D01*
X85590Y-58389D01*
X85579Y-58363D01*
X85410Y-58193D01*
X85410Y-57000D01*
X85378Y-56843D01*
X85289Y-56710D01*
X85039Y-56460D01*
X84906Y-56371D01*
X84752Y-56340D01*
X85390Y-56340D01*
X85481Y-56302D01*
X85552Y-56232D01*
X85590Y-56140D01*
X85590Y-56041D01*
X85590Y-55056D01*
X85552Y-54964D01*
X85482Y-54894D01*
X85390Y-54856D01*
X85291Y-54856D01*
X84109Y-54856D01*
X84018Y-54894D01*
X83947Y-54964D01*
X83909Y-55056D01*
X83909Y-55155D01*
X83909Y-56140D01*
X83947Y-56231D01*
X84017Y-56302D01*
X84108Y-56340D01*
X82669Y-56340D01*
X82660Y-56330D01*
X82660Y-55944D01*
X82762Y-55842D01*
X82854Y-55620D01*
X82854Y-55380D01*
X82762Y-55158D01*
X82592Y-54987D01*
X82370Y-54895D01*
X82130Y-54895D01*
X81908Y-54987D01*
X81749Y-55145D01*
X81592Y-54987D01*
X81370Y-54895D01*
X81130Y-54895D01*
X80908Y-54987D01*
X80737Y-55157D01*
X80645Y-55379D01*
X80645Y-55619D01*
X80737Y-55841D01*
X80840Y-55944D01*
X80840Y-57250D01*
X80871Y-57406D01*
X80960Y-57539D01*
X81569Y-58148D01*
X81464Y-58078D01*
X81250Y-58036D01*
X81035Y-58078D01*
X80854Y-58200D01*
X80750Y-58355D01*
X80645Y-58200D01*
X80464Y-58078D01*
X80250Y-58036D01*
X80035Y-58078D01*
X79854Y-58200D01*
X79732Y-58381D01*
X79690Y-58596D01*
X79690Y-58903D01*
X79732Y-59118D01*
X79854Y-59299D01*
X79914Y-59340D01*
X79590Y-59340D01*
X79590Y-56041D01*
X79590Y-55155D01*
X79590Y-55056D01*
X79552Y-54964D01*
X79481Y-54894D01*
X79390Y-54856D01*
X78862Y-54856D01*
X78800Y-54918D01*
X78800Y-55548D01*
X79528Y-55548D01*
X79590Y-55485D01*
X79590Y-55155D01*
X79590Y-56041D01*
X79590Y-55710D01*
X79528Y-55648D01*
X78800Y-55648D01*
X78800Y-56278D01*
X78862Y-56340D01*
X79390Y-56340D01*
X79481Y-56302D01*
X79552Y-56232D01*
X79590Y-56140D01*
X79590Y-56041D01*
X79590Y-59340D01*
X79120Y-59340D01*
X79084Y-59325D01*
X78915Y-59324D01*
X78759Y-59389D01*
X78700Y-59448D01*
X78700Y-56278D01*
X78700Y-55648D01*
X78700Y-55548D01*
X78700Y-54918D01*
X78637Y-54856D01*
X78109Y-54856D01*
X78018Y-54894D01*
X77947Y-54964D01*
X77909Y-55056D01*
X77909Y-55155D01*
X77909Y-55485D01*
X77971Y-55548D01*
X78700Y-55548D01*
X78700Y-55648D01*
X77971Y-55648D01*
X77909Y-55710D01*
X77909Y-56041D01*
X77909Y-56140D01*
X77947Y-56232D01*
X78018Y-56302D01*
X78109Y-56340D01*
X78637Y-56340D01*
X78700Y-56278D01*
X78700Y-59448D01*
X78660Y-59488D01*
X78660Y-57500D01*
X78628Y-57343D01*
X78539Y-57210D01*
X78289Y-56960D01*
X78156Y-56871D01*
X78000Y-56840D01*
X77169Y-56840D01*
X77160Y-56830D01*
X77160Y-56340D01*
X77390Y-56340D01*
X77481Y-56302D01*
X77552Y-56232D01*
X77590Y-56140D01*
X77590Y-56041D01*
X77590Y-55056D01*
X77552Y-54964D01*
X77482Y-54894D01*
X77390Y-54856D01*
X77291Y-54856D01*
X76109Y-54856D01*
X76018Y-54894D01*
X75947Y-54964D01*
X75909Y-55056D01*
X75909Y-55155D01*
X75909Y-56140D01*
X75947Y-56231D01*
X76017Y-56302D01*
X76109Y-56340D01*
X76208Y-56340D01*
X76340Y-56340D01*
X76340Y-57000D01*
X76371Y-57156D01*
X76460Y-57289D01*
X76710Y-57539D01*
X76843Y-57628D01*
X77000Y-57660D01*
X77830Y-57660D01*
X77840Y-57669D01*
X77840Y-60250D01*
X77871Y-60406D01*
X77960Y-60539D01*
X78210Y-60789D01*
X78343Y-60878D01*
X78500Y-60910D01*
X80580Y-60910D01*
X80840Y-61169D01*
X80840Y-61221D01*
X80810Y-61266D01*
X80810Y-61250D01*
X80772Y-61158D01*
X80701Y-61088D01*
X80609Y-61050D01*
X80510Y-61049D01*
X79890Y-61049D01*
X79798Y-61087D01*
X79728Y-61158D01*
X79690Y-61250D01*
X79689Y-61349D01*
X79689Y-61351D01*
X79593Y-61371D01*
X79460Y-61460D01*
X79210Y-61710D01*
X79121Y-61843D01*
X79090Y-62000D01*
X79090Y-63260D01*
X79083Y-63262D01*
X79013Y-63333D01*
X78975Y-63425D01*
X78974Y-63524D01*
X78974Y-64074D01*
X79012Y-64166D01*
X79083Y-64236D01*
X79175Y-64274D01*
X79274Y-64275D01*
X79824Y-64275D01*
X79916Y-64237D01*
X79986Y-64166D01*
X80024Y-64074D01*
X80025Y-63975D01*
X80025Y-63975D01*
X80054Y-64047D01*
X80090Y-64082D01*
X80090Y-64500D01*
X80121Y-64656D01*
X80210Y-64789D01*
X80400Y-64980D01*
X78495Y-64980D01*
X78495Y-63877D01*
X78495Y-61627D01*
X78487Y-61332D01*
X78390Y-61096D01*
X78274Y-61045D01*
X78204Y-61116D01*
X78204Y-60975D01*
X78153Y-60859D01*
X77877Y-60754D01*
X77582Y-60762D01*
X77437Y-60822D01*
X77437Y-60113D01*
X77433Y-59992D01*
X77433Y-58364D01*
X77329Y-58113D01*
X77137Y-57921D01*
X76886Y-57817D01*
X76614Y-57816D01*
X76363Y-57920D01*
X76171Y-58112D01*
X76067Y-58363D01*
X76066Y-58635D01*
X76170Y-58886D01*
X76362Y-59078D01*
X76613Y-59182D01*
X76885Y-59183D01*
X77136Y-59079D01*
X77328Y-58887D01*
X77432Y-58636D01*
X77433Y-58364D01*
X77433Y-59992D01*
X77428Y-59841D01*
X77341Y-59632D01*
X77232Y-59588D01*
X77161Y-59659D01*
X77161Y-59517D01*
X77117Y-59408D01*
X76863Y-59312D01*
X76591Y-59321D01*
X76382Y-59408D01*
X76338Y-59517D01*
X76750Y-59929D01*
X77161Y-59517D01*
X77161Y-59659D01*
X76820Y-60000D01*
X77232Y-60411D01*
X77341Y-60367D01*
X77437Y-60113D01*
X77437Y-60822D01*
X77346Y-60859D01*
X77295Y-60975D01*
X77750Y-61429D01*
X78204Y-60975D01*
X78204Y-61116D01*
X77820Y-61500D01*
X78274Y-61954D01*
X78390Y-61903D01*
X78495Y-61627D01*
X78495Y-63877D01*
X78487Y-63582D01*
X78390Y-63346D01*
X78274Y-63295D01*
X78204Y-63366D01*
X78204Y-63225D01*
X78204Y-62024D01*
X77750Y-61570D01*
X77679Y-61641D01*
X77679Y-61500D01*
X77225Y-61045D01*
X77161Y-61073D01*
X77161Y-60482D01*
X76750Y-60070D01*
X76679Y-60141D01*
X76679Y-60000D01*
X76267Y-59588D01*
X76158Y-59632D01*
X76062Y-59886D01*
X76071Y-60158D01*
X76158Y-60367D01*
X76267Y-60411D01*
X76679Y-60000D01*
X76679Y-60141D01*
X76338Y-60482D01*
X76382Y-60591D01*
X76636Y-60687D01*
X76908Y-60678D01*
X77117Y-60591D01*
X77161Y-60482D01*
X77161Y-61073D01*
X77109Y-61096D01*
X77004Y-61372D01*
X77012Y-61667D01*
X77109Y-61903D01*
X77225Y-61954D01*
X77679Y-61500D01*
X77679Y-61641D01*
X77295Y-62024D01*
X77346Y-62140D01*
X77622Y-62245D01*
X77917Y-62237D01*
X78153Y-62140D01*
X78204Y-62024D01*
X78204Y-63225D01*
X78153Y-63109D01*
X77877Y-63004D01*
X77582Y-63012D01*
X77346Y-63109D01*
X77295Y-63225D01*
X77750Y-63679D01*
X78204Y-63225D01*
X78204Y-63366D01*
X77820Y-63750D01*
X78274Y-64204D01*
X78390Y-64153D01*
X78495Y-63877D01*
X78495Y-64980D01*
X78204Y-64980D01*
X78204Y-64274D01*
X77750Y-63820D01*
X77679Y-63891D01*
X77679Y-63750D01*
X77225Y-63295D01*
X77109Y-63346D01*
X77004Y-63622D01*
X77012Y-63917D01*
X77109Y-64153D01*
X77225Y-64204D01*
X77679Y-63750D01*
X77679Y-63891D01*
X77295Y-64274D01*
X77346Y-64390D01*
X77622Y-64495D01*
X77917Y-64487D01*
X78153Y-64390D01*
X78204Y-64274D01*
X78204Y-64980D01*
X72269Y-64980D01*
X72269Y-63849D01*
X72460Y-64039D01*
X72593Y-64128D01*
X72750Y-64160D01*
X73240Y-64160D01*
X73381Y-64300D01*
X73620Y-64399D01*
X73878Y-64400D01*
X74117Y-64301D01*
X74259Y-64160D01*
X75616Y-64160D01*
X75620Y-64169D01*
X75829Y-64378D01*
X76101Y-64491D01*
X76396Y-64492D01*
X76669Y-64379D01*
X76878Y-64170D01*
X76991Y-63898D01*
X76992Y-63603D01*
X76992Y-61353D01*
X76879Y-61080D01*
X76670Y-60871D01*
X76398Y-60758D01*
X76103Y-60757D01*
X75830Y-60870D01*
X75621Y-61079D01*
X75590Y-61152D01*
X75590Y-56041D01*
X75590Y-55056D01*
X75552Y-54964D01*
X75482Y-54894D01*
X75390Y-54856D01*
X75291Y-54856D01*
X74109Y-54856D01*
X74018Y-54894D01*
X73947Y-54964D01*
X73909Y-55056D01*
X73909Y-55155D01*
X73909Y-56140D01*
X73947Y-56231D01*
X74017Y-56302D01*
X74109Y-56340D01*
X74208Y-56340D01*
X75390Y-56340D01*
X75481Y-56302D01*
X75552Y-56232D01*
X75590Y-56140D01*
X75590Y-56041D01*
X75590Y-61152D01*
X75512Y-61340D01*
X74687Y-61340D01*
X74687Y-60113D01*
X74678Y-59841D01*
X74591Y-59632D01*
X74482Y-59588D01*
X74411Y-59659D01*
X74411Y-59517D01*
X74367Y-59408D01*
X74113Y-59312D01*
X73841Y-59321D01*
X73632Y-59408D01*
X73588Y-59517D01*
X74000Y-59929D01*
X74411Y-59517D01*
X74411Y-59659D01*
X74070Y-60000D01*
X74482Y-60411D01*
X74591Y-60367D01*
X74687Y-60113D01*
X74687Y-61340D01*
X74411Y-61340D01*
X74411Y-60482D01*
X74000Y-60070D01*
X73929Y-60141D01*
X73929Y-60000D01*
X73517Y-59588D01*
X73408Y-59632D01*
X73312Y-59886D01*
X73321Y-60158D01*
X73408Y-60367D01*
X73517Y-60411D01*
X73929Y-60000D01*
X73929Y-60141D01*
X73588Y-60482D01*
X73632Y-60591D01*
X73886Y-60687D01*
X74158Y-60678D01*
X74367Y-60591D01*
X74411Y-60482D01*
X74411Y-61340D01*
X74395Y-61340D01*
X74362Y-61258D01*
X74291Y-61188D01*
X74199Y-61150D01*
X74100Y-61149D01*
X73300Y-61149D01*
X73208Y-61187D01*
X73138Y-61258D01*
X73100Y-61350D01*
X73099Y-61449D01*
X73099Y-62149D01*
X73137Y-62241D01*
X73208Y-62311D01*
X73264Y-62335D01*
X73291Y-62362D01*
X73185Y-62402D01*
X73095Y-62644D01*
X73105Y-62902D01*
X73185Y-63097D01*
X73291Y-63137D01*
X73679Y-62750D01*
X73673Y-62744D01*
X73744Y-62673D01*
X73750Y-62679D01*
X73755Y-62673D01*
X73826Y-62744D01*
X73820Y-62750D01*
X74208Y-63137D01*
X74314Y-63097D01*
X74404Y-62855D01*
X74394Y-62597D01*
X74314Y-62402D01*
X74208Y-62362D01*
X74235Y-62335D01*
X74291Y-62312D01*
X74361Y-62241D01*
X74395Y-62160D01*
X75904Y-62160D01*
X76101Y-62241D01*
X76396Y-62242D01*
X76669Y-62129D01*
X76878Y-61920D01*
X76991Y-61648D01*
X76992Y-61353D01*
X76992Y-63603D01*
X76879Y-63330D01*
X76670Y-63121D01*
X76398Y-63008D01*
X76103Y-63007D01*
X75830Y-63120D01*
X75621Y-63329D01*
X75616Y-63340D01*
X74404Y-63340D01*
X74259Y-63340D01*
X74134Y-63215D01*
X74137Y-63208D01*
X73750Y-62820D01*
X73679Y-62891D01*
X73362Y-63208D01*
X73365Y-63215D01*
X73240Y-63340D01*
X72919Y-63340D01*
X72910Y-63330D01*
X72910Y-58919D01*
X72919Y-58910D01*
X73444Y-58910D01*
X73612Y-59078D01*
X73863Y-59182D01*
X74135Y-59183D01*
X74386Y-59079D01*
X74578Y-58887D01*
X74682Y-58636D01*
X74683Y-58364D01*
X74579Y-58113D01*
X74387Y-57921D01*
X74136Y-57817D01*
X73864Y-57816D01*
X73613Y-57920D01*
X73443Y-58090D01*
X72750Y-58090D01*
X72593Y-58121D01*
X72460Y-58210D01*
X72269Y-58400D01*
X72269Y-54519D01*
X91230Y-54519D01*
X91230Y-64980D01*
M02*
