M48
;DRILL file {Pcbnew (2013-07-07 BZR 4022)-stable} date 24/05/2018 08:43:15
;FORMAT={-:-/ absolute / inch / decimal}
FMAT,2
INCH,TZ
T1C0.025
T2C0.032
T3C0.039
T4C0.040
T5C0.045
%
G90
G05
M72
T1
X7.9Y-5.975
X8.5Y-6.125
X8.775Y-5.8
T2
X7.4Y-5.85
X7.4Y-6.
X7.675Y-5.85
X7.675Y-6.
X7.95Y-6.375
X8.025Y-5.875
X8.025Y-6.175
X8.05Y-6.375
X8.125Y-5.55
X8.125Y-5.875
X8.125Y-6.175
X8.15Y-6.375
X8.225Y-5.55
X8.225Y-5.875
X8.225Y-6.175
X8.25Y-6.375
X8.325Y-5.875
X8.325Y-6.175
X8.5Y-5.875
X8.5Y-6.025
X8.55Y-6.2
X8.75Y-6.2
X8.8Y-5.875
X8.8Y-6.025
X9.Y-5.95
X9.Y-6.1
T3
X7.475Y-5.55
X7.675Y-5.55
X7.875Y-5.55
X8.475Y-5.55
X8.675Y-5.55
X8.875Y-5.55
T4
X7.625Y-6.15
X7.625Y-6.375
X7.775Y-6.15
X7.775Y-6.375
X8.375Y-6.375
X8.525Y-6.375
X8.675Y-6.375
X8.85Y-6.375
X9.Y-6.375
T5
X7.375Y-6.175
X7.375Y-6.275
X7.375Y-6.375
T0
M30
